<svg width="25" height="25" viewBox="0 0 25 25" fill="none" xmlns="http://www.w3.org/2000/svg">
<g id="Black">
<path id="Vector" d="M0.918186 0.0549507C0.520907 0.198233 0.195269 0.530384 0.0585007 0.927662C-0.0717547 1.3054 0.019424 2.58191 0.29296 4.2101C1.31872 10.3419 4.66954 15.9298 9.63553 19.7919C13.4162 22.7324 17.9947 24.5397 22.6936 24.9533C23.7096 25.0412 24.0287 25.0119 24.3544 24.8067C24.527 24.696 24.7419 24.4778 24.8331 24.3183C25.0154 24.0089 25.0089 24.1457 24.9991 20.6679L24.9894 17.4636L24.8982 17.2715C24.7289 16.91 24.4293 16.6299 24.0939 16.5192C24.0125 16.4932 22.4885 16.2294 20.7072 15.9298C17.021 15.3144 17.1448 15.3274 16.7214 15.5391C16.5847 15.6042 16.4283 15.7182 16.3404 15.8093C16.2558 15.894 15.6957 16.7244 15.09 17.6492L13.9926 19.3327L13.5334 19.0527C11.902 18.066 10.492 16.9458 9.12753 15.5553C8.30367 14.7152 7.82498 14.1584 7.18021 13.2954C6.60383 12.5204 5.6953 11.1267 5.6953 11.0192C5.6953 10.9997 6.46055 10.4852 7.39188 9.87621C8.54789 9.12398 9.13404 8.72019 9.23499 8.61273C9.31315 8.52806 9.42386 8.35873 9.47922 8.23825C9.66483 7.82794 9.6746 7.90609 9.05589 4.22638C8.44369 0.572716 8.47951 0.719254 8.14736 0.39036C8.04316 0.286154 7.89011 0.178694 7.75659 0.113565L7.53516 0.00936127L4.31134 0.00284958C1.22103 -0.00366402 1.08101 -0.00366402 0.918186 0.0549507Z" fill="white"/>
</g>
</svg>
