<svg width="35" height="30" viewBox="0 0 35 30" fill="none" xmlns="http://www.w3.org/2000/svg">
<g id="Black">
<path id="Vector" d="M6.35705 0.146358C5.99974 0.365114 5.83203 0.693251 5.83203 1.17452C5.83203 1.65578 6.01433 1.98392 6.41538 2.21726C6.6706 2.37039 6.72894 2.37039 18.8845 2.40685L31.0985 2.44331L31.4849 2.66206C31.9516 2.91728 32.185 3.17979 32.4402 3.71939L32.6298 4.12044L32.6662 10.479C32.7027 16.8011 32.7027 16.8375 32.8558 17.0417C33.3517 17.7053 34.3725 17.6834 34.8319 16.9906L34.9996 16.75V10.2894C34.9996 3.11416 35.0215 3.43501 34.5111 2.40685C34.1319 1.65578 33.3444 0.868256 32.5933 0.489077C31.5287 -0.0359402 32.5204 0.000520706 18.8845 0.000520706C6.75081 0.000520706 6.59768 0.000520706 6.35705 0.146358Z" fill="white"/>
<path id="Vector_2" d="M3.35457 4.78401C2.17329 5.09027 1.02117 6.01634 0.488856 7.07367C-0.0288685 8.1237 0.000299107 7.43826 0.000299107 18.0844V27.6733L0.175305 28.0379C0.423229 28.5702 0.678446 28.84 1.18159 29.0879C1.56077 29.2775 1.7139 29.314 2.1587 29.314C2.49413 29.314 2.81497 29.2702 3.00456 29.19C3.17957 29.1244 4.30252 28.3296 5.50568 27.4254L7.69325 25.7774L17.0998 25.7409C25.7334 25.7045 26.5428 25.6899 26.9439 25.5732C28.5773 25.1065 29.8315 23.845 30.2252 22.2773C30.3929 21.6283 30.3929 8.70706 30.2252 8.05808C29.8242 6.48303 28.5189 5.17778 26.9439 4.77672C26.3095 4.6163 3.97438 4.62359 3.35457 4.78401ZM26.747 7.29972C27.2574 7.55494 27.5053 7.81744 27.7751 8.38621L27.9647 8.78727L27.9866 14.8395C28.0012 18.4709 27.9793 21.0741 27.9356 21.3439C27.8408 21.9419 27.6731 22.2773 27.272 22.6856C26.6157 23.3492 27.4908 23.2909 16.6987 23.3346L7.18282 23.3711L6.78177 23.5534C6.4828 23.6846 3.58791 25.7774 2.42121 26.7108C2.28266 26.8201 2.33371 8.90394 2.47225 8.51747C2.65455 8.02162 3.07019 7.56952 3.56604 7.3143L4.02543 7.07367H15.1602H26.3022L26.747 7.29972Z" fill="white"/>
<path id="Vector_3" d="M10.0161 14.227C9.15566 14.65 9.17025 15.9115 10.038 16.3344C10.5557 16.5896 11.0734 16.4875 11.4818 16.05C11.788 15.7292 11.8391 15.0948 11.5912 14.6646C11.2849 14.1177 10.6068 13.9281 10.0161 14.227Z" fill="white"/>
<path id="Vector_4" d="M14.6802 14.227C13.8197 14.65 13.8343 15.9115 14.702 16.3344C15.2198 16.5896 15.7375 16.4875 16.1458 16.05C16.4521 15.7292 16.5031 15.0948 16.2552 14.6646C15.949 14.1177 15.2708 13.9281 14.6802 14.227Z" fill="white"/>
<path id="Vector_5" d="M19.2123 14.2197C18.7529 14.4531 18.6289 14.6791 18.6289 15.2917C18.6289 15.7729 18.6435 15.8313 18.8477 16.05C19.2341 16.4584 19.7373 16.5823 20.2258 16.3782C20.7071 16.174 20.9404 15.8021 20.9331 15.2114C20.9331 14.7666 20.7071 14.4166 20.2988 14.2197C19.9269 14.0375 19.5841 14.0375 19.2123 14.2197Z" fill="white"/>
</g>
</svg>
