<svg width="50" height="76.645" viewBox="0 0 67 78" fill="none" xmlns="http://www.w3.org/2000/svg">
<g id="Black">
<path id="Vector" d="M14.8285 1.05193C14.6485 1.26155 14.4684 1.68078 14.417 1.99521C14.3141 2.71391 14.3141 18.1059 14.417 18.8246C14.4684 19.139 14.6485 19.5583 14.8285 19.7679L15.15 20.1422H17.9791H20.8211L22.7758 22.3881L24.7305 24.634H25.3992H26.0679L28.0226 22.3881L29.9773 20.1422H33.758H37.5388L39.4935 22.3881L41.4481 24.634H42.1168H42.7856L44.7402 22.3881L46.6949 20.1422H49.5369H52.3661L52.6875 19.7679C52.8676 19.5583 53.0476 19.139 53.0991 18.8246C53.2019 18.1059 53.2019 2.71391 53.0991 1.99521C53.0476 1.68078 52.8676 1.26155 52.6875 1.05193L52.3661 0.677608H33.758H15.15L14.8285 1.05193ZM50.4757 10.4099V17.1477H47.8909H45.3061L43.7115 18.9743L42.1168 20.786L40.5222 18.9743L38.9276 17.1477H33.758H28.5884L26.9938 18.9743L25.3992 20.786L23.8046 18.9743L22.21 17.1477H19.6252H17.0404V10.4099V3.67216H33.758H50.4757V10.4099Z" fill="url(#paint0_linear_2029_1239)" fill-opacity="0.6"/>
<path id="Vector_2" d="M25.0922 9.30197C24.8221 9.61639 24.7578 9.84099 24.7578 10.41C24.7578 10.9789 24.8221 11.2035 25.0922 11.5179C25.3622 11.8324 25.5551 11.9072 26.0438 11.9072C26.8925 11.9072 27.3298 11.3982 27.3298 10.41C27.3298 9.3918 26.9311 8.91267 26.0695 8.91267C25.5551 8.91267 25.3751 8.98754 25.0922 9.30197Z" fill="url(#paint1_linear_2029_1239)" fill-opacity="0.6"/>
<path id="Vector_3" d="M32.807 9.30197C32.537 9.61639 32.4727 9.84099 32.4727 10.41C32.4727 11.4131 32.9099 11.9072 33.7843 11.9072C34.646 11.9072 35.0446 11.4281 35.0446 10.41C35.0446 9.3918 34.646 8.91267 33.7843 8.91267C33.27 8.91267 33.0899 8.98754 32.807 9.30197Z" fill="url(#paint2_linear_2029_1239)" fill-opacity="0.6"/>
<path id="Vector_4" d="M40.5258 9.30197C40.2557 9.61639 40.1914 9.84099 40.1914 10.41C40.1914 11.4131 40.6286 11.9072 41.5031 11.9072C42.3647 11.9072 42.7634 11.4281 42.7634 10.41C42.7634 9.3918 42.3647 8.91267 41.5031 8.91267C40.9887 8.91267 40.8087 8.98754 40.5258 9.30197Z" fill="url(#paint3_linear_2029_1239)" fill-opacity="0.6"/>
<path id="Vector_5" d="M3.53932 28.1826C1.75182 28.9013 0.748758 30.7729 0.864495 33.1386C0.967373 35.0251 1.75182 36.4475 3.12781 37.2411C3.73221 37.5855 3.75793 37.5855 9.68627 37.6304L15.6275 37.6753V54.9239C15.6275 64.4616 15.6789 72.5918 15.7432 73.1158C15.9618 74.8377 16.772 76.1853 18.0451 76.9039C18.5595 77.2034 18.8424 77.2633 19.9355 77.2633C21.0285 77.2633 21.3115 77.2034 21.8258 76.9039C22.6103 76.4697 23.369 75.5714 23.7548 74.673L24.0506 73.9693L24.0892 65.1653L24.1277 56.3763H25.3366H26.5454L26.5839 64.9557C26.6354 74.658 26.5968 74.2987 27.677 75.6911C28.5 76.7542 29.3359 77.2184 30.5833 77.3082C31.7536 77.3831 32.538 77.1735 33.2453 76.5745L33.7597 76.1403L34.2741 76.5745C34.9813 77.1735 35.7658 77.3831 36.936 77.3082C38.1834 77.2184 39.0193 76.7542 39.8423 75.6911C40.8582 74.3735 40.8325 74.673 40.8325 64.9557V56.3763H42.1185H43.4045L43.4302 65.1803L43.4688 73.9693L43.7645 74.673C44.1503 75.5714 44.9091 76.4697 45.6935 76.9039C46.2079 77.2034 46.4908 77.2633 47.5839 77.2633C48.677 77.2633 48.9599 77.2034 49.4743 76.9039C50.7474 76.1853 51.5575 74.8377 51.7761 73.1158C51.8404 72.5918 51.8919 64.4616 51.8919 54.9239V37.6753L57.8459 37.6304C63.7614 37.5855 63.7871 37.5855 64.3915 37.2411C65.1631 36.7919 65.9347 35.9085 66.3076 34.9952C66.5648 34.3963 66.6163 34.0669 66.6163 32.7942C66.6163 31.5215 66.5648 31.1921 66.3076 30.5932C65.9347 29.6798 65.1631 28.7965 64.3915 28.3473L63.7871 28.0029L33.9526 27.9729C7.14004 27.943 4.05371 27.958 3.53932 28.1826ZM31.6121 31.267C31.805 31.4017 32.0622 31.7012 32.1779 31.9258C32.3965 32.315 32.4094 33.4829 32.4094 52.6331C32.4094 71.7833 32.3965 72.9511 32.1779 73.3404C31.5092 74.5233 30.2232 74.5233 29.5545 73.3404C29.3359 72.9661 29.3231 72.2175 29.2845 63.5482L29.2459 54.1603L28.9116 53.771L28.5772 53.3817H25.4009H22.2245L21.903 53.7561C21.723 53.9657 21.5429 54.3849 21.4915 54.6993C21.4529 54.9988 21.4143 59.281 21.4143 64.207V73.1757L20.9771 73.6848C20.6042 74.119 20.4499 74.1939 19.9483 74.1939C19.2025 74.1939 18.6238 73.6549 18.4566 72.7715C18.3794 72.4271 18.328 64.4915 18.328 53.8159V35.4593L17.9936 35.0551L17.6464 34.6658H11.4609C8.06594 34.6658 5.04391 34.5909 4.76099 34.516C3.60362 34.2016 3.12781 32.6594 3.89939 31.6562C4.09229 31.4017 4.45236 31.1472 4.69669 31.0723C4.94103 31.0124 11.0237 30.9675 18.1994 30.9675C30.4419 30.9974 31.2906 31.0124 31.6121 31.267ZM62.7584 31.0723C64.3915 31.5065 64.3915 34.0818 62.7584 34.516C62.4754 34.5909 59.4534 34.6658 56.0584 34.6658H49.8729L49.5257 35.0551L49.1913 35.4593V53.8159C49.1913 64.4915 49.1399 72.4271 49.0627 72.7715C48.8956 73.6549 48.3169 74.1939 47.571 74.1939C47.0695 74.1939 46.9152 74.119 46.5422 73.6848L46.105 73.1757V64.207C46.105 59.281 46.0664 54.9988 46.0279 54.6993C45.9764 54.3849 45.7964 53.9657 45.6163 53.7561L45.2948 53.3817H42.1185H38.9421L38.5949 53.771L38.2606 54.1753V63.1739C38.2606 68.1299 38.1963 72.4421 38.132 72.7715C38.0677 73.1308 37.8619 73.5351 37.6176 73.7746C36.7688 74.673 35.4314 74.119 35.1742 72.7715C35.0971 72.4271 35.0456 63.7579 35.0456 51.9294C35.0456 39.1576 34.9942 31.5514 34.917 31.3119L34.7885 30.9226H48.5226C56.4314 30.9226 62.4626 30.9825 62.7584 31.0723Z" fill="url(#paint4_linear_2029_1239)" fill-opacity="0.6"/>
</g>
<defs>
<linearGradient id="paint0_linear_2029_1239" x1="33.758" y1="24.634" x2="33.758" y2="0.677608" gradientUnits="userSpaceOnUse">
<stop stop-color="#1FD1F9"/>
<stop offset="1" stop-color="#07463E"/>
</linearGradient>
<linearGradient id="paint1_linear_2029_1239" x1="26.0438" y1="11.9072" x2="26.0438" y2="8.91267" gradientUnits="userSpaceOnUse">
<stop stop-color="#1FD1F9"/>
<stop offset="1" stop-color="#07463E"/>
</linearGradient>
<linearGradient id="paint2_linear_2029_1239" x1="33.7586" y1="11.9072" x2="33.7586" y2="8.91267" gradientUnits="userSpaceOnUse">
<stop stop-color="#1FD1F9"/>
<stop offset="1" stop-color="#07463E"/>
</linearGradient>
<linearGradient id="paint3_linear_2029_1239" x1="41.4774" y1="11.9072" x2="41.4774" y2="8.91267" gradientUnits="userSpaceOnUse">
<stop stop-color="#1FD1F9"/>
<stop offset="1" stop-color="#07463E"/>
</linearGradient>
<linearGradient id="paint4_linear_2029_1239" x1="33.7359" y1="77.3228" x2="33.7359" y2="27.9614" gradientUnits="userSpaceOnUse">
<stop stop-color="#1FD1F9"/>
<stop offset="1" stop-color="#07463E"/>
</linearGradient>
</defs>
</svg>
