<svg width="40" height="40" viewBox="0 0 40 40" fill="none" xmlns="http://www.w3.org/2000/svg">
<g id="Black">
<path id="Vector" d="M1.125 0.158333C0.716667 0.349998 0.3 0.774998 0.133333 1.18333C0.0166667 1.45833 0 3.46666 0 20C0 36.5333 0.0166667 38.5417 0.133333 38.8167C0.3 39.225 0.716667 39.65 1.125 39.8417C1.45 39.9917 2.11667 40 20 40C37.8833 40 38.55 39.9917 38.875 39.8417C39.2833 39.65 39.7 39.225 39.8667 38.8167C39.9833 38.5417 40 36.5333 40 19.9833C40 2.11666 39.9917 1.45 39.8417 1.125C39.65 0.716663 39.225 0.299999 38.8167 0.133331C38.5417 0.0166664 36.5333 -3.8147e-06 19.9833 -3.8147e-06C2.11667 -3.8147e-06 1.45 0.0083313 1.125 0.158333ZM38.1667 1.425C38.6083 1.58333 38.6667 1.85 38.6667 3.70833V5.33333H20H1.33333V3.71666C1.33333 1.9 1.39167 1.625 1.78333 1.45C2 1.35833 5.06667 1.34166 19.9667 1.33333C33.1333 1.33333 37.9667 1.35833 38.1667 1.425ZM38.6667 9.33333V12H33.4167C27.625 12 27.8333 11.9833 27.2583 12.525C26.6583 13.0917 26.6667 13 26.6667 17.3917V21.3333H25.6667H24.6667V18.8333C24.6667 16.4417 24.6583 16.325 24.5 16.1667C24.3417 16.0083 24.225 16 22.8333 16H21.3333V12.75C21.3333 9.15833 21.3333 9.14166 20.8083 8.59167C20.6583 8.44167 20.3917 8.24166 20.2083 8.15833C19.8917 8.00833 19.4917 8 12.0167 8C3.35 8 3.84167 7.96666 3.25833 8.525C3.10833 8.675 2.90833 8.94167 2.825 9.125C2.675 9.44167 2.66667 9.81667 2.66667 16.6667C2.66667 23.5167 2.675 23.8917 2.825 24.2083C2.90833 24.3917 3.10833 24.6583 3.25833 24.8083C3.84167 25.3667 3.35 25.3333 12.0167 25.3333C19.4917 25.3333 19.8917 25.325 20.2083 25.175C20.3917 25.0917 20.6583 24.8917 20.8083 24.7417C21.3333 24.1917 21.3333 24.175 21.3333 20.5833V17.3333H22.3333H23.3333V26V34.6667H22.3333H21.3333V32.0833C21.3333 29.225 21.3167 29.1333 20.8083 28.5917C20.6583 28.4417 20.3917 28.2417 20.2083 28.1583C19.8917 28.0083 19.5 28 12 28C4.5 28 4.10833 28.0083 3.79167 28.1583C3.60833 28.2417 3.34167 28.4417 3.19167 28.5917C2.65 29.1583 2.66667 29.025 2.66667 34.0833V38.6667H2.375C1.9 38.6667 1.53333 38.475 1.425 38.1667C1.35833 37.9667 1.33333 33.7167 1.33333 22.2833V6.66666H20H38.6667V9.33333ZM19.5333 9.45C19.8333 9.575 20 9.9 20 10.3833V10.6667H12H4V10.3833C4 9.91667 4.16667 9.575 4.45 9.45C4.84167 9.28333 19.125 9.28333 19.5333 9.45ZM20 17.625C20 23.8417 20.0083 23.725 19.5 23.9083C19.1083 24.0417 4.89167 24.0417 4.5 23.9083C3.99167 23.725 4 23.8417 4 17.625V12H12H20V17.625ZM38.6667 14V14.6667H33.3333H28V14.3833C28 13.9167 28.1667 13.575 28.45 13.45C28.6583 13.3583 29.6833 13.3417 33.6917 13.3333H38.6667V14ZM38.6667 18.6667V21.3333H36.5C34.4417 21.3333 34.325 21.3417 34.1667 21.5C34.0583 21.6083 34 21.775 34 22C34 22.225 34.0583 22.3917 34.1667 22.5C34.325 22.6583 34.4417 22.6667 36.5 22.6667H38.6667V25.3333V28H33.7167C30.2417 28 28.6917 27.975 28.5 27.9083C27.9917 27.725 28 27.8417 28 21.625V16H33.3333H38.6667V18.6667ZM26.6667 25.25C26.6667 28.1083 26.6833 28.2 27.1917 28.7417C27.775 29.3583 27.5083 29.3333 33.4 29.3333H38.6667V33.6167C38.6667 36.5917 38.6417 37.975 38.575 38.1667C38.3917 38.6917 38.7667 38.6667 29.625 38.6667H21.3333V37.3333V36H22.8333C24.225 36 24.3417 35.9917 24.5 35.8333C24.6667 35.6667 24.6667 35.5583 24.6667 29.1667V22.6667H25.6667H26.6667V25.25ZM19.5333 29.45C19.8333 29.575 20 29.9 20 30.3833V30.6667H12H4V30.3833C4 29.9167 4.16667 29.575 4.45 29.45C4.84167 29.2833 19.125 29.2833 19.5333 29.45ZM20 35.3333V38.6667H12H4V35.3333V32H12H20V35.3333Z" fill="url(#paint0_linear_2239_270)"/>
<path id="Vector_2" d="M2.83464 2.83333C2.7263 2.94167 2.66797 3.10833 2.66797 3.33333C2.66797 3.86667 2.86797 4 3.66797 4C4.46797 4 4.66797 3.86667 4.66797 3.33333C4.66797 2.8 4.46797 2.66667 3.66797 2.66667C3.10964 2.66667 2.9763 2.69167 2.83464 2.83333Z" fill="url(#paint1_linear_2239_270)"/>
<path id="Vector_3" d="M5.4987 2.83333C5.39036 2.94167 5.33203 3.10833 5.33203 3.33333C5.33203 3.86667 5.53203 4 6.33203 4C7.13203 4 7.33203 3.86667 7.33203 3.33333C7.33203 2.8 7.13203 2.66667 6.33203 2.66667C5.7737 2.66667 5.64036 2.69167 5.4987 2.83333Z" fill="url(#paint2_linear_2239_270)"/>
<path id="Vector_4" d="M8.16667 2.83333C8.05833 2.94167 8 3.10833 8 3.33333C8 3.86667 8.2 4 9 4C9.8 4 10 3.86667 10 3.33333C10 2.8 9.8 2.66667 9 2.66667C8.44167 2.66667 8.30833 2.69167 8.16667 2.83333Z" fill="url(#paint3_linear_2239_270)"/>
<path id="Vector_5" d="M12.8346 2.83333C12.7263 2.94167 12.668 3.10833 12.668 3.33333C12.668 3.55833 12.7263 3.725 12.8346 3.83333C13.0013 4 13.1096 4 25.0013 4C36.893 4 37.0013 4 37.168 3.83333C37.2763 3.725 37.3346 3.55833 37.3346 3.33333C37.3346 3.10833 37.2763 2.94167 37.168 2.83333C37.0013 2.66667 36.893 2.66667 25.0013 2.66667C13.1096 2.66667 13.0013 2.66667 12.8346 2.83333Z" fill="url(#paint4_linear_2239_270)"/>
<path id="Vector_6" d="M13.0669 14.675C12.8835 14.7417 12.5585 15.25 11.4169 17.2417C9.9002 19.9 9.80853 20.1417 10.1669 20.5C10.3835 20.7167 10.9419 20.725 11.1502 20.5167C11.2252 20.4417 11.9085 19.2917 12.6585 17.9667C13.7502 16.05 14.0335 15.5 14.0252 15.2667C14.0085 14.7833 13.5502 14.5 13.0669 14.675Z" fill="url(#paint5_linear_2239_270)"/>
<path id="Vector_7" d="M7.25209 16.75C5.50209 17.9167 5.50209 18.0917 7.23542 19.2417C8.16876 19.8583 8.44376 20 8.69376 20C9.11042 20 9.33542 19.7667 9.33542 19.3333C9.33542 18.9417 9.24376 18.8417 8.51876 18.375C8.23542 18.1917 8.00209 18.025 8.00209 18C8.00209 17.975 8.23542 17.8083 8.51876 17.625C9.24376 17.1583 9.33542 17.0583 9.33542 16.6667C9.33542 16.2333 9.11042 16 8.69376 16C8.43542 16 8.16876 16.1417 7.25209 16.75Z" fill="url(#paint6_linear_2239_270)"/>
<path id="Vector_8" d="M14.8319 16.1667C14.6152 16.3833 14.6069 16.9417 14.8152 17.1417C14.8902 17.225 15.1902 17.4417 15.4819 17.625C15.7652 17.8083 15.9986 17.975 15.9986 18C15.9986 18.025 15.7652 18.1917 15.4819 18.375C14.7569 18.8417 14.6652 18.9417 14.6652 19.3333C14.6652 19.7667 14.8902 20 15.3152 20C15.5652 20 15.8319 19.8667 16.7069 19.2833C17.3069 18.8917 17.8402 18.5083 17.8986 18.4333C18.0319 18.2667 18.0319 17.7333 17.8986 17.5667C17.8402 17.4917 17.3069 17.1083 16.7069 16.7167C15.5236 15.9333 15.1736 15.825 14.8319 16.1667Z" fill="url(#paint7_linear_2239_270)"/>
<path id="Vector_9" d="M31.2521 20.75C29.5021 21.9167 29.5021 22.0917 31.2354 23.2417C32.1688 23.8583 32.4438 24 32.6938 24C33.1104 24 33.3354 23.7667 33.3354 23.3333C33.3354 22.9417 33.2438 22.8417 32.5188 22.375C32.2354 22.1917 32.0021 22.025 32.0021 22C32.0021 21.975 32.2354 21.8083 32.5188 21.625C33.2438 21.1583 33.3354 21.0583 33.3354 20.6667C33.3354 20.2333 33.1104 20 32.6938 20C32.4354 20 32.1688 20.1417 31.2521 20.75Z" fill="url(#paint8_linear_2239_270)"/>
<path id="Vector_10" d="M5.4987 33.5C5.39036 33.6083 5.33203 33.775 5.33203 34C5.33203 34.5333 5.53203 34.6666 6.33203 34.6666C7.13203 34.6666 7.33203 34.5333 7.33203 34C7.33203 33.4666 7.13203 33.3333 6.33203 33.3333C5.7737 33.3333 5.64036 33.3583 5.4987 33.5Z" fill="url(#paint9_linear_2239_270)"/>
<path id="Vector_11" d="M8.83464 33.5C8.7263 33.6083 8.66797 33.775 8.66797 34C8.66797 34.225 8.7263 34.3916 8.83464 34.5C9.0013 34.6666 9.10964 34.6666 13.668 34.6666C18.2263 34.6666 18.3346 34.6666 18.5013 34.5C18.6096 34.3916 18.668 34.225 18.668 34C18.668 33.775 18.6096 33.6083 18.5013 33.5C18.3346 33.3333 18.2263 33.3333 13.668 33.3333C9.10964 33.3333 9.0013 33.3333 8.83464 33.5Z" fill="url(#paint10_linear_2239_270)"/>
<path id="Vector_12" d="M5.4987 36.1667C5.39036 36.275 5.33203 36.4417 5.33203 36.6667C5.33203 37.2 5.53203 37.3334 6.33203 37.3334C7.13203 37.3334 7.33203 37.2 7.33203 36.6667C7.33203 36.1334 7.13203 36 6.33203 36C5.7737 36 5.64036 36.025 5.4987 36.1667Z" fill="url(#paint11_linear_2239_270)"/>
<path id="Vector_13" d="M8.83464 36.1667C8.7263 36.275 8.66797 36.4417 8.66797 36.6667C8.66797 36.8917 8.7263 37.0584 8.83464 37.1667C9.0013 37.3334 9.10964 37.3334 13.668 37.3334C18.2263 37.3334 18.3346 37.3334 18.5013 37.1667C18.6096 37.0584 18.668 36.8917 18.668 36.6667C18.668 36.4417 18.6096 36.275 18.5013 36.1667C18.3346 36 18.2263 36 13.668 36C9.10964 36 9.0013 36 8.83464 36.1667Z" fill="url(#paint12_linear_2239_270)"/>
</g>
<defs>
<linearGradient id="paint0_linear_2239_270" x1="19" y1="47" x2="20" y2="9.28529e-07" gradientUnits="userSpaceOnUse">
<stop stop-color="#1FD1F9"/>
<stop offset="1" stop-color="#07463E"/>
</linearGradient>
<linearGradient id="paint1_linear_2239_270" x1="3.61797" y1="4.23333" x2="3.6402" y2="2.66627" gradientUnits="userSpaceOnUse">
<stop stop-color="#1FD1F9"/>
<stop offset="1" stop-color="#07463E"/>
</linearGradient>
<linearGradient id="paint2_linear_2239_270" x1="6.28203" y1="4.23333" x2="6.30426" y2="2.66627" gradientUnits="userSpaceOnUse">
<stop stop-color="#1FD1F9"/>
<stop offset="1" stop-color="#07463E"/>
</linearGradient>
<linearGradient id="paint3_linear_2239_270" x1="8.95" y1="4.23333" x2="8.97223" y2="2.66627" gradientUnits="userSpaceOnUse">
<stop stop-color="#1FD1F9"/>
<stop offset="1" stop-color="#07463E"/>
</linearGradient>
<linearGradient id="paint4_linear_2239_270" x1="24.3846" y1="4.23333" x2="24.3864" y2="2.66596" gradientUnits="userSpaceOnUse">
<stop stop-color="#1FD1F9"/>
<stop offset="1" stop-color="#07463E"/>
</linearGradient>
<linearGradient id="paint5_linear_2239_270" x1="11.908" y1="21.7257" x2="12.1343" y2="14.6269" gradientUnits="userSpaceOnUse">
<stop stop-color="#1FD1F9"/>
<stop offset="1" stop-color="#07463E"/>
</linearGradient>
<linearGradient id="paint6_linear_2239_270" x1="7.55151" y1="20.7" x2="7.66921" y2="16.0008" gradientUnits="userSpaceOnUse">
<stop stop-color="#1FD1F9"/>
<stop offset="1" stop-color="#07463E"/>
</linearGradient>
<linearGradient id="paint7_linear_2239_270" x1="16.248" y1="20.703" x2="16.3689" y2="15.9839" gradientUnits="userSpaceOnUse">
<stop stop-color="#1FD1F9"/>
<stop offset="1" stop-color="#07463E"/>
</linearGradient>
<linearGradient id="paint8_linear_2239_270" x1="31.5515" y1="24.7" x2="31.6692" y2="20.0008" gradientUnits="userSpaceOnUse">
<stop stop-color="#1FD1F9"/>
<stop offset="1" stop-color="#07463E"/>
</linearGradient>
<linearGradient id="paint9_linear_2239_270" x1="6.28203" y1="34.9" x2="6.30426" y2="33.3329" gradientUnits="userSpaceOnUse">
<stop stop-color="#1FD1F9"/>
<stop offset="1" stop-color="#07463E"/>
</linearGradient>
<linearGradient id="paint10_linear_2239_270" x1="13.418" y1="34.9" x2="13.4224" y2="33.3326" gradientUnits="userSpaceOnUse">
<stop stop-color="#1FD1F9"/>
<stop offset="1" stop-color="#07463E"/>
</linearGradient>
<linearGradient id="paint11_linear_2239_270" x1="6.28203" y1="37.5667" x2="6.30426" y2="35.9996" gradientUnits="userSpaceOnUse">
<stop stop-color="#1FD1F9"/>
<stop offset="1" stop-color="#07463E"/>
</linearGradient>
<linearGradient id="paint12_linear_2239_270" x1="13.418" y1="37.5667" x2="13.4224" y2="35.9993" gradientUnits="userSpaceOnUse">
<stop stop-color="#1FD1F9"/>
<stop offset="1" stop-color="#07463E"/>
</linearGradient>
</defs>
</svg>
