<svg width="78" height="37" viewBox="0 0 78 37" fill="none" xmlns="http://www.w3.org/2000/svg">
<g id="Black">
<path id="Vector" d="M51.4209 0.0889244C45.6374 0.889259 40.9864 5.23824 39.8085 10.9916C39.5065 12.4714 39.5065 15.0084 39.8085 16.5033C40.926 21.9546 45.2901 26.2432 50.7414 27.255C52.1005 27.5117 54.8186 27.4815 56.1323 27.1946C57.8085 26.8321 59.4847 26.1224 60.8588 25.2164L62.0971 24.3858L64.4075 26.5301C65.8118 27.8439 66.7179 28.8103 66.733 28.9915C66.7481 29.1576 66.8689 29.4597 67.0199 29.6711C67.5182 30.411 74.2833 36.6325 74.842 36.859C75.7178 37.2214 76.79 36.859 77.1373 36.0737C77.394 35.5452 77.3638 34.5637 77.092 34.156C76.9712 33.9596 75.2799 32.3137 73.3168 30.5016C70.5383 27.9043 69.6172 27.1342 69.0736 26.9378C68.5601 26.7566 67.79 26.1526 66.144 24.6275L63.9091 22.5738L64.6944 21.3959C65.5853 20.0671 66.3252 18.4211 66.7028 16.8808C67.0954 15.2953 67.0501 11.8523 66.6273 10.2668C65.238 5.20804 61.3722 1.47818 56.3286 0.315437C55.03 0.0134239 52.7347 -0.0922813 51.4209 0.0889244ZM56.1021 4.151C58.6843 4.95133 61.04 6.94461 62.2028 9.30031C64.0602 13.0604 63.441 17.3942 60.6172 20.4295C56.3437 25.0503 49.2313 24.7634 45.3807 19.7952C43.9914 17.9832 43.327 15.9899 43.327 13.604C43.3572 8.71139 46.8605 4.70972 51.9494 3.78858C52.78 3.63757 55.0753 3.83388 56.1021 4.151Z" fill="url(#paint0_linear_2239_286)"/>
<path id="Vector_2" d="M6.71978 1.67439C4.06207 2.14251 1.90268 3.65258 0.875837 5.76666C0.392616 6.74821 0.377516 6.86901 0.377516 8.53008C0.377516 10.1609 0.407717 10.3271 0.845635 11.2482C1.79698 13.2264 3.29194 14.3136 7.2936 15.9445C8.29025 16.3522 9.33219 16.8505 9.6191 17.077C10.6761 17.8774 10.9782 18.9042 10.4798 19.9462C10.1476 20.6408 9.5889 21.0183 8.45635 21.3052C6.88589 21.7129 3.97147 21.2901 1.99328 20.3841C1.52516 20.1727 1.10235 20.0519 1.04194 20.1123C0.921138 20.2482 0 24.0384 0 24.4159C0 24.8992 2.3557 25.6089 4.8624 25.9109C9.95132 26.4998 14.0889 24.8992 15.6292 21.7733C16.7466 19.478 16.5654 16.7448 15.161 14.6911C14.3456 13.5133 12.5335 12.3807 9.5134 11.1576C6.70468 10.025 5.88925 9.34551 5.88925 8.10726C5.88925 6.03848 9.21138 5.35895 13.0167 6.6727C13.6661 6.88411 14.2097 7.05022 14.2399 7.00492C14.3154 6.91431 15.4026 2.88244 15.4026 2.70124C15.4026 2.50493 13.6963 1.94621 12.1862 1.65929C10.7214 1.38748 8.32045 1.38748 6.71978 1.67439Z" fill="url(#paint1_linear_2239_286)"/>
<path id="Vector_3" d="M19.9375 13.7399V25.7449H27.5633H35.1891V23.4798V21.2147H30.2814H25.3737V18.4211V15.6274H29.7529H34.1321V13.3624V11.0973H29.7529H25.3737V8.75666V6.41607H30.0549H34.7361V4.07547V1.73487H27.3368H19.9375V13.7399Z" fill="url(#paint2_linear_2239_286)"/>
</g>
<defs>
<linearGradient id="paint0_linear_2239_286" x1="59.6283" y1="44.2448" x2="54.7198" y2="0.417536" gradientUnits="userSpaceOnUse">
<stop stop-color="#1FD1F9"/>
<stop offset="1" stop-color="#07463E"/>
</linearGradient>
<linearGradient id="paint1_linear_2239_286" x1="8.68987" y1="30.8431" x2="3.77708" y2="2.21248" gradientUnits="userSpaceOnUse">
<stop stop-color="#1FD1F9"/>
<stop offset="1" stop-color="#07463E"/>
</linearGradient>
<linearGradient id="paint2_linear_2239_286" x1="28.0404" y1="30.4462" x2="23.0249" y2="2.55086" gradientUnits="userSpaceOnUse">
<stop stop-color="#1FD1F9"/>
<stop offset="1" stop-color="#07463E"/>
</linearGradient>
</defs>
</svg>
