<svg width="40" height="40" viewBox="0 0 40 40" fill="none" xmlns="http://www.w3.org/2000/svg">
<g id="Black">
<path id="Vector" d="M17.5454 0.0865021C14.7319 0.443768 11.3379 1.67633 9.12282 3.15005L8.47974 3.57877L8.29218 3.34655C8.02423 2.99821 7.65803 2.84638 7.12214 2.84638C6.55944 2.84638 6.14859 3.06074 5.88957 3.48945C5.7288 3.7574 5.71094 3.94497 5.71094 5.7045C5.71094 7.84809 5.7556 8.01779 6.35402 8.38399C6.62196 8.54476 6.80953 8.56262 8.56906 8.56262C10.3286 8.56262 10.5162 8.54476 10.7841 8.38399C11.2128 8.11604 11.4272 7.71412 11.4272 7.13356C11.4272 6.56194 11.2218 6.16001 10.8198 5.91886L10.543 5.76702L10.9181 5.52587C13.6333 3.81099 16.6968 2.93569 19.9569 2.92676C21.6271 2.92676 22.8775 3.08753 24.5031 3.50732C25.3516 3.72168 25.7446 3.7842 25.9947 3.73954C26.7449 3.60557 27.1469 3.09646 27.1469 2.30155C27.1469 1.72992 26.9236 1.31014 26.4681 1.04219C26.0661 0.801033 23.9315 0.29193 22.681 0.131161C21.4931 -0.0206776 18.6261 -0.047472 17.5454 0.0865021Z" fill="url(#paint0_linear_2239_299)"/>
<path id="Vector_2" d="M29.2173 3.02498C28.6189 3.39118 28.5742 3.56088 28.5742 5.70447C28.5742 7.464 28.5921 7.65157 28.7529 7.91952C29.0208 8.35716 29.4227 8.56259 30.0122 8.56259C30.6374 8.56259 31.0215 8.32144 31.3073 7.75875L31.5038 7.35682L32.1379 8.00883C34.7817 10.7419 36.3983 13.9752 36.9253 17.5925C37.095 18.8072 37.095 21.1741 36.9253 22.4066C36.6127 24.6038 35.8356 26.7742 34.6567 28.7927C34.3441 29.3197 34.2905 29.4894 34.2905 29.9092C34.2905 30.8024 34.8264 31.3383 35.7195 31.3383C36.5948 31.3383 36.8449 31.0792 37.8542 29.1053C38.8009 27.2565 39.3726 25.5506 39.7656 23.4338C40.0335 21.969 40.0514 18.1373 39.7923 16.735C39.0332 12.564 37.3362 9.17887 34.478 6.13319L33.835 5.44545L34.0582 5.10605C34.5138 4.43618 34.3173 3.43583 33.6474 3.02498C33.3794 2.86421 33.1919 2.84635 31.4323 2.84635C29.6728 2.84635 29.4852 2.86421 29.2173 3.02498Z" fill="url(#paint1_linear_2239_299)"/>
<path id="Vector_3" d="M3.5581 8.76812C3.3884 8.8753 3.12045 9.17005 2.95968 9.4112C2.5399 10.0364 1.48596 12.2068 1.14656 13.1178C0.717842 14.2968 0.289123 16.0831 0.128354 17.3961C-0.0860052 19.0306 -0.0234837 21.9959 0.253397 23.4785C0.967928 27.4263 2.71853 30.865 5.52306 33.8571L6.16614 34.5448L5.94285 34.8842C5.48733 35.5541 5.68383 36.5544 6.3537 36.9653C6.62165 37.1261 6.80922 37.1439 8.56875 37.1439C10.3283 37.1439 10.5158 37.1261 10.7838 36.9653C11.3822 36.5991 11.4269 36.4294 11.4269 34.2858C11.4269 32.5263 11.409 32.3387 11.2482 32.0708C10.9803 31.6331 10.5784 31.4277 9.98888 31.4277C9.36366 31.4277 8.9796 31.6688 8.69379 32.2315L8.49729 32.6334L7.86315 31.9814C5.21939 29.2573 3.60276 26.0151 3.07579 22.3978C2.90609 21.192 2.90609 18.8162 3.07579 17.5926C3.39733 15.3418 4.21904 13.0464 5.37122 11.1707C5.98751 10.1615 5.92498 9.28616 5.18366 8.77705C4.74601 8.48231 3.99575 8.47338 3.5581 8.76812Z" fill="url(#paint2_linear_2239_299)"/>
<path id="Vector_4" d="M10.0696 8.7323C8.77449 9.15209 7.66697 10.2864 7.28291 11.5904C7.15786 12.0102 7.14 12.8141 7.14 17.4674V22.8532H6.18432C5.09466 22.8532 4.78205 22.9693 4.46051 23.4963C4.23722 23.8625 4.21936 24.836 4.42478 25.5416C4.80884 26.8635 5.9253 27.9889 7.23825 28.3998C7.75628 28.5605 8.25645 28.5695 20.0016 28.5695C31.7466 28.5695 32.2468 28.5605 32.7649 28.3998C34.0778 27.9889 35.1943 26.8635 35.5783 25.5416C35.7837 24.836 35.7659 23.8625 35.5426 23.4963C35.2211 22.9693 34.9084 22.8532 33.8277 22.8532H32.8631V17.4585C32.8631 12.4121 32.8542 12.0281 32.6934 11.519C32.2825 10.206 31.1572 9.08956 29.8353 8.7055C29.4066 8.58046 28.2722 8.5626 19.9658 8.57153C11.1146 8.57153 10.5519 8.58046 10.0696 8.7323ZM28.7903 11.51C29.2279 11.6083 29.5495 11.8405 29.7817 12.2335C29.9514 12.5282 29.9603 12.7247 29.9871 17.6907L30.0139 22.8532H20.0016H9.98919L10.016 17.6907C10.0428 12.7247 10.0517 12.5282 10.2214 12.2335C10.4447 11.8584 10.7752 11.5994 11.1682 11.51C11.5969 11.4118 28.3616 11.4029 28.7903 11.51Z" fill="url(#paint3_linear_2239_299)"/>
<path id="Vector_5" d="M16.4723 12.9481C16.1954 13.0999 13.1229 16.1724 12.98 16.4403C12.8282 16.7262 12.8103 17.5121 12.9532 17.789C13.0961 18.0659 16.1597 21.1473 16.4455 21.2992C16.5795 21.3706 16.901 21.4242 17.16 21.4242C18.0264 21.4242 18.5712 20.8794 18.5712 20.013C18.5712 19.754 18.5266 19.4503 18.473 19.3431C18.4194 19.2359 17.9282 18.6911 17.3833 18.1374L16.383 17.137L17.3833 16.1277C17.9282 15.5829 18.4194 15.0381 18.473 14.9309C18.5266 14.8237 18.5712 14.52 18.5712 14.261C18.5712 13.3857 18.0264 12.8498 17.1422 12.8498C16.8742 12.8498 16.5705 12.9034 16.4723 12.9481Z" fill="url(#paint4_linear_2239_299)"/>
<path id="Vector_6" d="M22.0728 13.0285C21.644 13.2875 21.4297 13.6983 21.4297 14.261C21.4297 14.52 21.4743 14.8237 21.5279 14.9309C21.5815 15.0381 22.0728 15.5829 22.6176 16.1277L23.6179 17.137L22.6176 18.1374C22.0728 18.6911 21.5815 19.2359 21.5279 19.3431C21.4743 19.4503 21.4297 19.754 21.4297 20.013C21.4297 20.8794 21.9745 21.4242 22.8409 21.4242C23.0999 21.4242 23.4214 21.3706 23.5554 21.2992C23.8412 21.1473 26.9048 18.0659 27.0477 17.789C27.1906 17.5121 27.1727 16.7262 27.0209 16.4403C26.8691 16.1545 23.7876 13.091 23.5108 12.9481C23.1892 12.7873 22.4032 12.832 22.0728 13.0285Z" fill="url(#paint5_linear_2239_299)"/>
<path id="Vector_7" d="M29.22 31.6062C28.7913 31.8742 28.5769 32.2761 28.5769 32.8567C28.5769 33.4283 28.7824 33.8302 29.1932 34.0714L29.4612 34.2322L28.9074 34.5716C27.4784 35.4558 25.308 36.3311 23.6556 36.6794C22.298 36.9742 21.4674 37.0635 20.0026 37.0635C18.377 37.0635 17.0998 36.8938 15.501 36.4829C14.2774 36.1703 13.8933 36.1703 13.4378 36.4651C12.6697 36.9742 12.6518 38.3764 13.411 38.8766C13.9023 39.1981 16.1262 39.7251 17.7607 39.9127C19.288 40.0913 22.1908 39.9841 23.6913 39.6983C26.1029 39.2428 29.0235 38.0728 30.8813 36.8402L31.5244 36.4115L31.7119 36.6437C31.9799 36.992 32.3461 37.1439 32.882 37.1439C33.4447 37.1439 33.8555 36.9295 34.1146 36.5008C34.2753 36.2328 34.2932 36.0453 34.2932 34.2857C34.2932 32.1421 34.2485 31.9724 33.6501 31.6062C33.3822 31.4455 33.1946 31.4276 31.4351 31.4276C29.6755 31.4276 29.488 31.4455 29.22 31.6062Z" fill="url(#paint6_linear_2239_299)"/>
</g>
<defs>
<linearGradient id="paint0_linear_2239_299" x1="16.4384" y1="9.78921" x2="16.4369" y2="-1.54022e-05" gradientUnits="userSpaceOnUse">
<stop stop-color="#1FD1F9"/>
<stop offset="1" stop-color="#07463E"/>
</linearGradient>
<linearGradient id="paint1_linear_2239_299" x1="34.2806" y1="35.4197" x2="34.2491" y2="2.84637" gradientUnits="userSpaceOnUse">
<stop stop-color="#1FD1F9"/>
<stop offset="1" stop-color="#07463E"/>
</linearGradient>
<linearGradient id="paint2_linear_2239_299" x1="5.7185" y1="41.2398" x2="5.68685" y2="8.55151" gradientUnits="userSpaceOnUse">
<stop stop-color="#1FD1F9"/>
<stop offset="1" stop-color="#07463E"/>
</linearGradient>
<linearGradient id="paint3_linear_2239_299" x1="20.0155" y1="31.4344" x2="20.0098" y2="8.56957" gradientUnits="userSpaceOnUse">
<stop stop-color="#1FD1F9"/>
<stop offset="1" stop-color="#07463E"/>
</linearGradient>
<linearGradient id="paint4_linear_2239_299" x1="15.7159" y1="22.6525" x2="15.7102" y2="12.8498" gradientUnits="userSpaceOnUse">
<stop stop-color="#1FD1F9"/>
<stop offset="1" stop-color="#07463E"/>
</linearGradient>
<linearGradient id="paint5_linear_2239_299" x1="24.2901" y1="22.6524" x2="24.2844" y2="12.8502" gradientUnits="userSpaceOnUse">
<stop stop-color="#1FD1F9"/>
<stop offset="1" stop-color="#07463E"/>
</linearGradient>
<linearGradient id="paint6_linear_2239_299" x1="23.5819" y1="41.228" x2="23.5804" y2="31.4276" gradientUnits="userSpaceOnUse">
<stop stop-color="#1FD1F9"/>
<stop offset="1" stop-color="#07463E"/>
</linearGradient>
</defs>
</svg>
