<svg width="37" height="40" viewBox="0 0 37 40" fill="none" xmlns="http://www.w3.org/2000/svg">
<path d="M28.5532 0.124554C28.0452 0.304314 27.4121 0.710728 27.1386 1.03117C27.0135 1.17185 26.3414 2.14881 25.6302 3.21174L24.3406 5.13439L13.3987 5.15783L2.45676 5.18128L2.05035 5.34541C1.08121 5.74401 0.377799 6.53339 0.119883 7.50253C-0.00516737 7.95584 -0.012983 8.90935 0.0104639 18.6633L0.0339109 29.3316L0.284012 29.8553C0.604453 30.5431 1.16718 31.1058 1.85496 31.4262L2.37861 31.6763L8.88904 31.6998C13.9848 31.7154 15.3995 31.7389 15.376 31.817C15.3604 31.8639 15.1494 32.7236 14.9149 33.724L14.4929 35.5294L13.1642 35.5607C11.8981 35.5842 11.8199 35.592 11.4369 35.7952C10.9367 36.0609 10.4365 36.6158 10.2802 37.0848C10.2099 37.288 10.1552 37.6709 10.1552 37.9445V38.4369H8.75618C7.38062 38.4369 7.34154 38.4447 7.13052 38.6244C6.94295 38.7886 6.91168 38.8745 6.91168 39.2184C6.91168 39.5623 6.94295 39.6483 7.13052 39.8124L7.34936 40H18.1271H28.9049L29.1238 39.8124C29.3113 39.6483 29.3426 39.5623 29.3426 39.2184C29.3426 38.8745 29.3113 38.7886 29.1238 38.6244C28.9127 38.4447 28.8737 38.4369 27.4981 38.4369H26.0991V37.9445C26.0991 37.6709 26.0444 37.288 25.9741 37.0848C25.8177 36.6158 25.3175 36.0609 24.8173 35.7952C24.4344 35.592 24.3562 35.5842 23.0901 35.5607L21.7614 35.5294L21.3394 33.724C21.1049 32.7236 20.8939 31.8639 20.8782 31.817C20.8548 31.7389 22.2694 31.7154 27.3652 31.6998L33.8757 31.6763L34.3993 31.4262C35.0871 31.1058 35.6498 30.5431 35.9703 29.8553L36.2204 29.3316L36.2438 18.6633C36.2673 6.72878 36.2985 7.47127 35.7124 6.56465C35.1887 5.75182 34.2899 5.2438 33.2426 5.16565L32.6877 5.11876L32.8284 4.82957C33.2739 3.91515 33.2192 2.65683 32.6877 1.68768C32.3985 1.15622 31.742 0.570045 31.1246 0.273052C30.6478 0.0542145 30.5071 0.022953 29.7725 0.0073204C29.1316 -0.0161285 28.8658 0.0151367 28.5532 0.124554ZM30.3508 1.73458C31.062 2.03157 31.5466 2.82095 31.4685 3.56344C31.445 3.7901 31.359 4.09491 31.2731 4.23559C31.1949 4.36845 29.9366 5.93158 28.4907 7.69792L25.849 10.918L24.747 10.0895C24.1374 9.62839 23.645 9.22979 23.6606 9.19071C23.6684 9.15163 24.7314 7.54161 26.0209 5.61114C28.2562 2.26604 28.3891 2.08628 28.7799 1.85963C29.1003 1.67205 29.2801 1.62516 29.6396 1.62516C29.8897 1.62516 30.2023 1.67205 30.3508 1.73458ZM23.1604 6.87728C23.1292 6.93199 22.332 8.12778 21.3941 9.5346C19.5105 12.3717 19.7684 12.1059 18.7446 12.2154C18.0881 12.2857 17.0642 12.6765 16.4624 13.0829C15.5558 13.7082 14.8915 14.6929 14.5554 15.9278C14.3834 16.5452 14.36 18.9681 14.5163 19.7184C14.9305 21.6801 15.0478 21.9068 15.6574 21.9068C15.9309 21.9068 16.0716 21.8442 16.4155 21.5785C17.2674 20.922 17.3612 20.8986 19.6121 20.8517C21.4332 20.8048 21.6442 20.7891 22.0506 20.625C23.0276 20.242 23.8404 19.3979 24.2233 18.3663C24.45 17.7801 24.5125 16.6937 24.364 15.9981L24.2546 15.4901L27.8185 11.1368L31.3747 6.79131L32.3594 6.78349C33.2973 6.78349 33.3755 6.79912 33.7663 7.00233C34.1023 7.17427 34.2274 7.29932 34.3993 7.6354L34.6182 8.04962V15.6621V23.2745H22.1835H9.74876L9.52211 23.5012C9.34235 23.6809 9.29546 23.7982 9.29546 24.0561C9.29546 24.4625 9.39706 24.6501 9.68624 24.7986C9.88163 24.9002 11.3979 24.9158 22.2694 24.9158H34.626L34.6025 26.9791L34.5791 29.0425L34.3446 29.3785C34.2196 29.5583 33.9538 29.7928 33.7663 29.8944L33.4224 30.0741H18.1271H2.83191L2.48802 29.8944C2.30045 29.7928 2.04253 29.5583 1.90967 29.3785L1.6752 29.0425L1.65175 26.9791L1.6283 24.9158H2.80847C4.36378 24.9158 4.60607 24.7986 4.60607 24.0561C4.60607 23.7982 4.55917 23.6809 4.37941 23.5012L4.15276 23.2745H2.89444H1.63612V15.7011C1.63612 10.1208 1.65957 8.06526 1.72991 7.86987C1.87059 7.44782 2.10506 7.1899 2.5271 6.97888L2.91789 6.78349H13.0704C21.1674 6.78349 23.2073 6.80693 23.1604 6.87728ZM24.6376 12.0981C24.7704 12.2232 24.7392 12.2701 23.9732 13.208L23.1604 14.1849L22.2694 13.5362C21.7849 13.1767 21.3472 12.8484 21.3081 12.8094C21.269 12.7703 21.5348 12.317 21.9646 11.6839L22.6837 10.6288L23.5903 11.3009C24.0905 11.6683 24.5594 12.0278 24.6376 12.0981ZM21.23 14.8414C22.6211 15.8731 22.6446 15.8965 22.7306 16.2639C22.9416 17.1705 22.7384 17.9989 22.1835 18.5617C21.6129 19.1478 21.5348 19.1635 19.3386 19.2182C17.4941 19.2651 17.3534 19.2729 16.8063 19.4683C16.4859 19.5855 16.2123 19.6637 16.2045 19.6559C16.1341 19.5855 16.0169 18.3741 16.0169 17.7879C16.0247 15.8418 16.7438 14.5913 18.1819 14.052C18.6508 13.8801 19.3776 13.7394 19.659 13.7707C19.7528 13.7863 20.4562 14.2631 21.23 14.8414ZM19.573 33.4349C19.7919 34.3571 19.9951 35.209 20.0263 35.3262L20.0811 35.5451H18.1271C16.2905 35.5451 16.1654 35.5373 16.2045 35.4044C16.2279 35.3341 16.4233 34.5134 16.6422 33.5912C16.861 32.6689 17.0564 31.8639 17.072 31.8092C17.1033 31.731 17.3534 31.7154 18.1428 31.731L19.1744 31.7545L19.573 33.4349ZM24.2312 37.413C24.4187 37.6084 24.4578 37.7022 24.4578 38.0383V38.4369H18.1271H11.7965V38.0383C11.7965 37.7022 11.8355 37.6084 12.0231 37.413L12.2498 37.1864H18.1271H24.0045L24.2312 37.413Z" fill="url(#paint0_linear_2237_259)"/>
<path d="M6.39462 23.5011C6.21486 23.6809 6.16797 23.7981 6.16797 24.0561C6.16797 24.2358 6.20705 24.4468 6.24613 24.5328C6.34773 24.7126 6.72288 24.9158 6.96517 24.9158C7.26998 24.9158 7.63731 24.6344 7.71547 24.353C7.93431 23.5168 6.99643 22.9071 6.39462 23.5011Z" fill="url(#paint1_linear_2237_259)"/>
<defs>
<linearGradient id="paint0_linear_2237_259" x1="18" y1="48" x2="16" y2="7" gradientUnits="userSpaceOnUse">
<stop stop-color="#1FD1F9"/>
<stop offset="1" stop-color="#07463E"/>
</linearGradient>
<linearGradient id="paint1_linear_2237_259" x1="6.95241" y1="25.2462" x2="6.87412" y2="23.5525" gradientUnits="userSpaceOnUse">
<stop stop-color="#1FD1F9"/>
<stop offset="1" stop-color="#07463E"/>
</linearGradient>
</defs>
</svg>
