<svg width="174" height="200" viewBox="0 0 174 200" fill="none" xmlns="http://www.w3.org/2000/svg">
<g id="Black">
<path id="Vector" d="M84.924 0.362442C83.3586 0.832062 82.6542 1.41908 81.6367 3.06276L80.8148 4.43248V67.6355V130.839L67.0393 117.063C59.4471 109.51 52.8333 103.131 52.3637 102.896C51.0331 102.231 48.2936 102.387 46.8848 103.248C44.2236 104.853 43.48 108.688 45.3194 111.349C45.8673 112.171 54.6726 121.133 64.8477 131.308C85.0414 151.424 84.6109 151.071 88.0548 150.171C89.3854 149.819 92.2814 147.08 108.757 130.721C119.637 119.842 128.09 111.115 128.403 110.41C129.499 107.827 128.873 105.401 126.603 103.483C125.624 102.661 124.959 102.466 123.355 102.466C122.22 102.505 120.967 102.701 120.498 102.974C120.028 103.248 113.649 109.353 106.292 116.554C98.9735 123.755 92.7902 129.704 92.5553 129.782C92.2814 129.899 92.164 109.119 92.164 66.9702C92.164 4.54988 92.164 4.04114 91.3813 2.74968C90.9117 2.00612 89.8942 1.14514 88.9158 0.714661C87.1156 -0.146317 86.646 -0.185455 84.924 0.362442Z" fill="#1FD1F9"/>
<path id="Vector_2" d="M56.5539 32.0227C48.4921 35.0361 39.5302 40.0454 32.9163 45.2112C29.042 48.2638 22.1542 55.0733 19.0234 59.0259C11.4312 68.4966 5.56096 80.3153 2.5867 92.095C-1.75729 109.158 -0.583241 128.451 5.75663 144.653C10.218 156.12 16.6753 165.943 25.6372 174.866C38.9431 188.171 55.4581 196.39 74.7517 199.325C80.6219 200.225 92.7538 200.225 98.624 199.325C124.257 195.411 145.743 181.636 159.714 160.19C172.511 140.505 176.62 115.146 170.789 92.095C167.815 80.3153 161.945 68.4966 154.352 59.0259C151.221 55.0733 144.334 48.2638 140.459 45.2112C133.689 39.928 123.475 34.3317 115.648 31.6314C111.226 30.1051 109.699 30.1834 107.547 32.1793C106.334 33.275 106.099 33.7447 105.942 35.6232C105.747 38.0495 106.451 39.8497 107.977 40.8281C108.447 41.1412 110.365 41.963 112.165 42.6283C129.971 49.0465 144.96 62.1958 153.57 78.9847C168.519 108.023 162.884 143.479 139.755 166.452C137.368 168.8 133.963 171.852 132.202 173.183C105.316 193.65 68.0596 193.65 41.1738 173.183C39.4128 171.852 36.008 168.8 33.6208 166.452C4.07383 137.1 4.1521 89.3947 33.7773 59.9651C41.3304 52.4121 51.1141 46.2287 61.211 42.6283C65.2027 41.1803 66.142 40.5933 66.9638 38.9888C67.903 37.2277 67.5508 33.9012 66.2985 32.5706C65.1636 31.3183 63.246 30.4573 61.7588 30.4965C61.1718 30.4965 58.8237 31.2009 56.5539 32.0227Z" fill="#1FD1F9"/>
</g>
</svg>
