<svg width="35" height="35" viewBox="0 0 35 35" fill="none" xmlns="http://www.w3.org/2000/svg">
<g id="Black">
<path id="Vector" d="M19.6907 0.102558C13.8587 0.991371 9.30521 5.56535 8.45058 11.4179C8.307 12.375 8.307 14.2757 8.45058 15.2329C8.71039 17.0311 9.40777 18.9591 10.2966 20.3539C10.4265 20.5521 10.529 20.7367 10.529 20.7641C10.529 20.8325 9.54451 21.6803 8.71723 22.3298C8.38221 22.5964 7.47972 23.2254 6.72765 23.7314C5.12094 24.8048 4.31417 25.4064 3.30229 26.2816C2.32459 27.1157 0.287156 29.0574 0.129904 29.3036C0.0410222 29.4335 0 29.6181 0 29.8779C0 30.1924 0.0341852 30.3086 0.198274 30.5274C0.430734 30.8419 4.33468 34.7253 4.58082 34.8894C4.82011 35.0467 5.44912 35.033 5.69525 34.8689C5.94139 34.7116 7.88311 32.6742 8.71723 31.6965C9.59237 30.6846 10.2009 29.8642 11.2674 28.2643C11.7734 27.5122 12.4024 26.6166 12.669 26.2816C13.3117 25.4543 14.1663 24.4698 14.2347 24.4698C14.2621 24.4698 14.4467 24.5723 14.6449 24.7022C15.609 25.3176 16.9969 25.9055 18.2549 26.2406C19.4172 26.5482 20.3334 26.6576 21.6734 26.6576C23.9843 26.6576 25.8167 26.22 27.8199 25.1808C31.6555 23.1912 34.2672 19.5197 34.8963 15.2329C35.0398 14.2757 35.0398 12.375 34.8963 11.4179C34.0348 5.52433 29.4745 0.964024 23.5809 0.102558C22.6648 -0.0341835 20.5932 -0.0341835 19.6907 0.102558ZM22.6785 2.14C24.4424 2.24255 26.5687 3.03565 28.237 4.21845C29.0643 4.80644 30.1924 5.93455 30.7804 6.76183C31.7512 8.1224 32.4759 9.85901 32.7494 11.4589C32.934 12.5323 32.934 14.1185 32.7494 15.1919C32.4759 16.7918 31.7512 18.5284 30.7804 19.8889C30.1924 20.7162 29.0643 21.8443 28.237 22.4323C27.3823 23.0408 26.0628 23.7109 25.0988 24.0185C22.8836 24.7364 20.3744 24.7296 18.1865 23.998C14.7817 22.8562 12.1426 20.224 11.0076 16.826C10.2761 14.6381 10.2624 12.1084 10.9803 9.90003C11.288 8.93601 11.958 7.61646 12.5665 6.76183C14.4398 4.12274 17.6601 2.33143 20.8872 2.11948C21.3042 2.09214 21.7349 2.07846 21.8443 2.09214C21.9606 2.09897 22.3298 2.12632 22.6785 2.14ZM12.2383 22.7947L12.5323 23.0955L12.1973 23.4784C11.3632 24.4424 10.5222 25.55 9.69492 26.7875C8.20445 29.0164 7.29512 30.1719 5.79097 31.7512L5.14145 32.4349L3.84925 31.1496L2.56389 29.8642L3.24759 29.2078C4.75858 27.7652 6.01659 26.767 8.03352 25.4269C9.40093 24.5108 10.2419 23.8886 11.1786 23.0818C11.5546 22.7537 11.8759 22.487 11.8964 22.487C11.917 22.487 12.0742 22.6238 12.2383 22.7947Z" fill="white"/>
<path id="Vector_2" d="M20.04 4.20478C16.2933 4.83379 13.162 7.9925 12.5466 11.7529C12.4167 12.587 12.4167 14.0638 12.5466 14.8979C13.162 18.6925 16.307 21.8375 20.1016 22.4528C20.9357 22.5827 22.4125 22.5827 23.2466 22.4528C27.0412 21.8375 30.1862 18.6925 30.8015 14.8979C30.9314 14.0638 30.9314 12.587 30.8015 11.7529C30.1862 7.95831 27.0412 4.81327 23.2466 4.19794C22.4467 4.06804 20.8263 4.07487 20.04 4.20478ZM22.4604 6.24222C23.8278 6.35161 25.3661 7.04899 26.5079 8.08822C27.424 8.92233 28.2513 10.3034 28.5932 11.5478C28.7299 12.0469 28.7504 12.293 28.7504 13.3254C28.7504 14.7201 28.641 15.2466 28.1283 16.3268C27.4035 17.8583 26.2412 19.0275 24.7166 19.759C21.5784 21.2564 17.8795 20.2718 15.8284 17.3934C15.4182 16.826 14.9533 15.8209 14.755 15.103C14.6183 14.5971 14.5978 14.3646 14.5978 13.3254C14.5978 11.9375 14.7072 11.411 15.2063 10.3444C15.6096 9.49665 15.9925 8.94968 16.642 8.29333C17.8522 7.09001 19.4042 6.35845 21.0451 6.2217C21.3733 6.19436 21.7151 6.18068 21.8108 6.18752C21.9066 6.20119 22.2005 6.2217 22.4604 6.24222Z" fill="white"/>
<path id="Vector_3" d="M21.0997 8.32752C20.9971 8.39589 20.8467 8.54631 20.7783 8.64886C20.6553 8.83346 20.6484 9.01122 20.6484 11.2743C20.6484 13.5373 20.6553 13.7151 20.7783 13.8997C20.8467 14.0023 20.9971 14.1527 21.0997 14.221C21.2843 14.3441 21.462 14.351 23.7251 14.351C25.9882 14.351 26.1659 14.3441 26.3505 14.221C26.665 14.0091 26.8018 13.7493 26.8018 13.3254C26.8018 12.9015 26.665 12.6417 26.3505 12.4297C26.1659 12.3135 26.0018 12.2998 24.4293 12.2998H22.6995V10.5701C22.6995 8.99755 22.6859 8.83346 22.5696 8.64886C22.3577 8.33436 22.0979 8.19762 21.674 8.19762C21.421 8.19762 21.2364 8.23864 21.0997 8.32752Z" fill="white"/>
</g>
</svg>
