<svg width="48" height="40" viewBox="0 0 48 40" fill="none" xmlns="http://www.w3.org/2000/svg">
<g id="Black">
<path id="Vector" d="M25.1111 0.192162C24.3619 0.458984 23.777 1.07473 23.5409 1.84441C23.3152 2.59356 23.192 5.77491 23.2639 8.82284L23.3152 11.2653H16.7575C9.10175 11.2653 8.78361 11.2961 7.62396 12.0965C6.81323 12.6507 6.64904 13.0202 6.54641 14.4672C6.50536 15.165 6.50536 20.5322 6.54641 26.4023C6.62851 35.6898 6.6593 37.1471 6.80297 37.6602C7.10058 38.7377 7.65475 39.3843 8.61942 39.764C9.04017 39.9384 10.0972 39.9487 26.24 39.9795L43.3987 40L43.9221 39.7845C44.5789 39.4971 45.1946 38.7993 45.3998 38.122C45.5333 37.6704 45.5538 36.049 45.5538 26.4434V15.2779L45.9438 15.1753C46.4569 15.0316 47.0829 14.4979 47.3087 13.9951C47.4831 13.6051 47.5036 13.1946 47.5036 7.61187V1.65968L47.2471 1.1363C47.0829 0.807907 46.8263 0.510296 46.5595 0.325573L46.1387 0.0279617L35.9174 0.00743866C25.9526 -0.0130882 25.6858 -0.00282288 25.1111 0.192162ZM45.8309 1.31076C46.0464 1.43391 46.2003 1.63916 46.2721 1.89572C46.3542 2.16254 46.3748 3.99951 46.3542 7.84791L46.3235 13.4204L45.9848 13.7488L45.6564 14.0874L42.2288 14.1182L38.7909 14.149L37.5799 15.1958C36.9128 15.7807 35.6506 16.848 34.7783 17.5664L33.1876 18.8902L33.126 18.2335C33.085 17.8743 33.0542 16.8275 33.0439 15.9039C33.0337 14.3851 33.0131 14.2209 32.8284 14.0361C32.6334 13.8412 32.4897 13.8309 29.3905 13.8309C25.9423 13.8309 25.696 13.8001 25.4395 13.328C25.2753 13.0202 25.3061 1.82388 25.4703 1.61863C25.5421 1.52627 25.7063 1.37234 25.85 1.27998C26.086 1.11578 26.8249 1.10551 35.8045 1.10551C45.2356 1.10551 45.5127 1.11578 45.8309 1.31076ZM23.4896 12.6712C23.4896 13.0099 24.0746 14.0977 24.403 14.3748C25.0187 14.8982 25.6858 15.0111 27.7485 14.9803C28.7645 14.97 29.9755 14.9803 30.4475 15.0213L31.289 15.0829V15.7397V16.3965H19.9902H8.70152L8.7323 14.929C8.76309 13.3075 8.83493 13.1228 9.53277 12.7123C9.88169 12.507 10.0254 12.4968 16.6959 12.4968C23.0997 12.4968 23.4896 12.507 23.4896 12.6712ZM44.3223 15.8321V16.3965H43.1626C42.5161 16.3965 41.1409 16.4273 40.1044 16.4683L38.2264 16.5299L38.7806 15.9039L39.345 15.2676H41.8388H44.3223V15.8321ZM44.2094 37.8757C44.0452 38.2657 43.4705 38.748 43.0703 38.8198C42.8856 38.8506 35.3119 38.8609 26.24 38.8506L9.74828 38.8198L9.46093 38.6043C9.307 38.4914 9.07096 38.2349 8.94781 38.0501L8.71178 37.7115V27.6749V17.628H19.9491H31.1864V18.3463C31.1864 19.0237 31.207 19.0852 31.5969 19.5984C31.8227 19.896 32.0074 20.1833 32.0074 20.2346C32.0074 20.2859 32.0793 20.4193 32.1819 20.522C32.5308 20.9119 32.7976 20.7785 34.7475 19.1673L36.605 17.628L40.4328 17.6074L44.271 17.5767L44.3018 27.5825C44.3223 34.8585 44.2915 37.6704 44.2094 37.8757Z" fill="url(#paint0_linear_2358_107)"/>
<path id="Vector_2" d="M38.0519 3.45555C37.8261 3.64028 37.8056 3.73264 37.744 5.37462C37.6927 6.43165 37.7029 7.17054 37.7645 7.28343C37.8979 7.52973 38.2571 7.61182 38.6163 7.47841C39.0268 7.31421 39.9709 7.345 40.3198 7.51946C40.484 7.61182 40.6996 7.81707 40.7817 7.99153C40.9972 8.39177 40.8432 8.89462 40.4122 9.26407C40.1556 9.47958 39.9914 9.52063 39.4886 9.52063C38.8421 9.52063 38.4726 9.30512 38.4726 8.92541C38.4726 8.64833 38.2674 8.49439 37.9082 8.49439C37.4977 8.49439 37.3438 8.65859 37.3438 9.09987C37.3438 9.62325 37.7337 10.2287 38.2161 10.4853C38.5445 10.6598 38.8113 10.7008 39.5091 10.7008C40.3096 10.7008 40.4327 10.67 40.8945 10.3929C41.5411 9.98244 41.9824 9.29486 42.0439 8.55596C42.1055 7.84786 41.9413 7.37579 41.4898 6.91398C41.0177 6.42139 40.5354 6.23666 39.6117 6.16483L38.8523 6.10325L38.9242 5.48751C38.9549 5.14885 38.9857 4.75888 38.9857 4.63573C38.9857 4.38943 38.9857 4.38943 40.2685 4.38943C41.4282 4.38943 41.5513 4.36891 41.654 4.19445C41.8079 3.89684 41.7771 3.61975 41.5719 3.43503C41.4077 3.29136 41.1306 3.26057 39.8375 3.26057C38.4726 3.26057 38.2571 3.28109 38.0519 3.45555Z" fill="url(#paint1_linear_2358_107)"/>
<path id="Vector_3" d="M32.8495 4.08163C32.6032 4.19451 32.2748 4.37924 32.1106 4.49212L31.8232 4.69737L31.2793 4.36898C30.8073 4.07137 30.6636 4.03032 30.0171 4.03032C29.1858 4.04058 28.8266 4.18425 28.2724 4.75895C27.5336 5.52863 27.2873 6.91405 27.6977 8.01213C27.9338 8.6484 28.6111 9.38729 29.3295 9.79778C29.586 9.94146 30.1812 10.2904 30.6328 10.5675C31.0946 10.8343 31.5975 11.0601 31.7514 11.0601C32.0798 11.0601 34.4504 9.6028 35.179 8.946C36.1437 8.08396 36.4721 6.82169 36.0513 5.60046C35.5793 4.21504 34.1015 3.5172 32.8495 4.08163ZM34.5428 5.45679C35.2406 6.19568 35.2406 7.08851 34.553 7.83767C34.1733 8.24816 31.8745 9.80805 31.7103 9.75673C31.5564 9.71568 29.7605 8.6484 29.4629 8.42262C29.0011 8.0737 28.6829 7.42717 28.6829 6.80116C28.6727 5.61073 29.8015 4.78973 30.6328 5.37469C31.2896 5.84676 31.464 5.92886 31.7822 5.92886C32.1824 5.92886 32.4595 5.79545 32.8392 5.44653C33.4139 4.92314 34.0296 4.92314 34.5428 5.45679Z" fill="url(#paint2_linear_2358_107)"/>
<path id="Vector_4" d="M10.8148 13.6461C10.4762 13.8411 10.3633 14.0669 10.3633 14.4979C10.3633 15.3702 11.2151 15.7704 11.8821 15.206C12.1489 14.9905 12.2003 14.8673 12.2003 14.4979C12.2003 14.1284 12.1489 14.0053 11.8821 13.7898C11.5537 13.5024 11.1535 13.4511 10.8148 13.6461Z" fill="url(#paint3_linear_2358_107)"/>
<path id="Vector_5" d="M14.0996 13.6667C13.7609 13.8104 13.5352 14.2004 13.5352 14.6109C13.5352 15.0111 14.0585 15.4729 14.5101 15.4729C14.9719 15.4729 15.485 15.0111 15.485 14.6006C15.485 14.1798 15.2182 13.7591 14.859 13.6359C14.4588 13.5025 14.4793 13.5025 14.0996 13.6667Z" fill="url(#paint4_linear_2358_107)"/>
<path id="Vector_6" d="M17.177 13.8616C16.9923 14.0156 16.8897 14.2311 16.8486 14.5184C16.7973 14.8981 16.8281 14.9802 17.1052 15.2676C17.5157 15.6678 18.0083 15.6884 18.4496 15.3086C18.7061 15.0931 18.7677 14.97 18.7677 14.6313C18.7677 13.7898 17.8031 13.3177 17.177 13.8616Z" fill="url(#paint5_linear_2358_107)"/>
<path id="Vector_7" d="M12.3533 21.1582C12.1173 21.3019 11.8299 21.5995 11.6862 21.8561L11.4297 22.2973V27.839C11.4297 33.2576 11.4297 33.391 11.6452 33.7912C11.7581 34.017 12.0557 34.3351 12.2917 34.5096L12.733 34.8175L20.2143 34.8483C25.2223 34.8688 27.8393 34.838 28.1061 34.7662C28.6295 34.6225 29.1118 34.212 29.3478 33.6886C29.5223 33.3089 29.5428 32.8984 29.5428 27.839C29.5428 21.7226 29.5531 21.8561 28.7629 21.2608L28.3832 20.9632L20.5735 20.9324L12.7638 20.9119L12.3533 21.1582ZM28.0445 22.2563L28.3113 22.4615V27.8185V33.1652L28.0856 33.4013L27.87 33.6373H20.4503H13.0306L12.8254 33.3705C12.6099 33.1036 12.6099 33.001 12.6099 27.8185V22.5436L12.8664 22.2973L13.1127 22.0408H20.4401C27.6956 22.0408 27.7777 22.0408 28.0445 22.2563Z" fill="url(#paint6_linear_2358_107)"/>
<path id="Vector_8" d="M17.4045 23.457C17.271 23.6109 17.23 24.1856 17.1684 27.5517C17.0863 31.79 17.0863 31.79 17.6302 31.79C17.815 31.79 18.8515 31.1538 20.7705 29.8607C23.254 28.2085 23.644 27.9006 23.6748 27.6646C23.7158 27.2951 23.5516 27.1514 21.5094 25.725C20.5961 25.099 19.4569 24.2882 18.9746 23.929C18.0613 23.2415 17.7021 23.1286 17.4045 23.457ZM20.8013 26.6999C21.4376 27.1412 21.9507 27.5414 21.9302 27.5825C21.8994 27.6646 18.3281 30.0557 18.2973 30.0146C18.2973 30.0044 18.3075 28.8755 18.3383 27.5106L18.3794 25.0169L19.0157 25.4581C19.3543 25.7044 20.165 26.2689 20.8013 26.6999Z" fill="url(#paint7_linear_2358_107)"/>
<path id="Vector_9" d="M30.9492 22.4308C30.7029 22.6976 30.7337 23.1286 31.0006 23.3133C31.2058 23.457 31.8831 23.4775 36.3165 23.4775C41.9197 23.4775 41.8582 23.4878 41.8582 22.8618C41.8582 22.2358 41.93 22.246 36.2549 22.246C31.4008 22.246 31.1032 22.2563 30.9492 22.4308Z" fill="url(#paint8_linear_2358_107)"/>
<path id="Vector_10" d="M32.0066 26.5871C31.6782 26.7513 31.5859 27.3465 31.8629 27.5518C32.0066 27.6544 32.9508 27.6852 36.1218 27.6852C40.6476 27.6852 40.5655 27.6954 40.5039 27.0284C40.4526 26.4742 40.3499 26.4537 36.1116 26.4537C33.2278 26.4537 32.2016 26.4845 32.0066 26.5871Z" fill="url(#paint9_linear_2358_107)"/>
<path id="Vector_11" d="M30.7771 31.0717C30.5206 31.3282 30.5103 31.7079 30.7566 31.9234C30.9311 32.0774 31.475 32.0979 36.442 32.0979C41.6245 32.0979 41.9426 32.0876 42.0966 31.9132C42.3429 31.6464 42.3121 31.2153 42.0452 31.0306C41.84 30.8869 41.1319 30.8664 36.4009 30.8664C31.1158 30.8664 30.9721 30.8767 30.7771 31.0717Z" fill="url(#paint10_linear_2358_107)"/>
<path id="Vector_12" d="M33.2579 34.2736C33.0526 34.4788 33.104 35.0535 33.3297 35.1767C33.4529 35.2382 34.2841 35.2793 35.3309 35.2793C37.0652 35.2793 37.1268 35.269 37.2807 35.0535C37.486 34.7559 37.486 34.5199 37.2807 34.3146C37.1473 34.1812 36.8189 34.1504 35.2488 34.1504C33.9352 34.1504 33.34 34.1915 33.2579 34.2736Z" fill="url(#paint11_linear_2358_107)"/>
<path id="Vector_13" d="M9.16484 3.77373C9.0417 3.82504 8.91855 3.93792 8.88776 4.02002C8.84671 4.11238 8.90828 5.31308 9.02117 6.67798C9.13406 8.04288 9.22642 9.19227 9.22642 9.23332C9.22642 9.39752 9.57534 9.62329 9.8319 9.62329C10.3245 9.62329 10.3963 9.42831 10.3245 8.3097C10.1706 5.76463 10.0064 4.06107 9.90374 3.93792C9.7498 3.74294 9.4214 3.6711 9.16484 3.77373Z" fill="url(#paint12_linear_2358_107)"/>
<path id="Vector_14" d="M3.54946 5.80566C3.44684 5.90829 3.375 6.11353 3.375 6.24694C3.375 6.79085 5.95086 10.8855 6.36136 10.9882C6.68975 11.0805 7.0592 10.8958 7.13104 10.5982C7.18235 10.393 7.03868 10.0953 6.32031 9.02805C5.84824 8.30969 5.21197 7.29371 4.91436 6.77033C4.25757 5.61068 3.92917 5.3849 3.54946 5.80566Z" fill="url(#paint13_linear_2358_107)"/>
<path id="Vector_15" d="M0.522007 10.0954C0.347546 10.2186 0.296234 10.3417 0.316759 10.5777C0.347546 10.8753 0.419383 10.9369 1.27116 11.3474C1.78428 11.5937 2.72842 12.0966 3.38522 12.4558C4.04201 12.8149 4.64749 13.1125 4.73985 13.1125C4.99641 13.1125 5.22218 12.8149 5.22218 12.4865C5.22218 12.0863 4.73985 11.7477 2.81052 10.7932C1.02486 9.92094 0.840141 9.85937 0.522007 10.0954Z" fill="url(#paint14_linear_2358_107)"/>
</g>
<defs>
<linearGradient id="paint0_linear_2358_107" x1="27.0096" y1="40" x2="27.0096" y2="0" gradientUnits="userSpaceOnUse">
<stop stop-color="#1FD1F9"/>
<stop offset="1" stop-color="#07463E"/>
</linearGradient>
<linearGradient id="paint1_linear_2358_107" x1="39.7001" y1="10.7008" x2="39.7001" y2="3.26057" gradientUnits="userSpaceOnUse">
<stop stop-color="#1FD1F9"/>
<stop offset="1" stop-color="#07463E"/>
</linearGradient>
<linearGradient id="paint2_linear_2358_107" x1="31.8656" y1="11.0601" x2="31.8656" y2="3.88537" gradientUnits="userSpaceOnUse">
<stop stop-color="#1FD1F9"/>
<stop offset="1" stop-color="#07463E"/>
</linearGradient>
<linearGradient id="paint3_linear_2358_107" x1="11.2818" y1="15.4677" x2="11.2818" y2="13.5297" gradientUnits="userSpaceOnUse">
<stop stop-color="#1FD1F9"/>
<stop offset="1" stop-color="#07463E"/>
</linearGradient>
<linearGradient id="paint4_linear_2358_107" x1="14.5101" y1="15.4729" x2="14.5101" y2="13.5394" gradientUnits="userSpaceOnUse">
<stop stop-color="#1FD1F9"/>
<stop offset="1" stop-color="#07463E"/>
</linearGradient>
<linearGradient id="paint5_linear_2358_107" x1="17.7979" y1="15.5811" x2="17.7979" y2="13.6289" gradientUnits="userSpaceOnUse">
<stop stop-color="#1FD1F9"/>
<stop offset="1" stop-color="#07463E"/>
</linearGradient>
<linearGradient id="paint6_linear_2358_107" x1="20.4863" y1="34.8545" x2="20.4863" y2="20.9119" gradientUnits="userSpaceOnUse">
<stop stop-color="#1FD1F9"/>
<stop offset="1" stop-color="#07463E"/>
</linearGradient>
<linearGradient id="paint7_linear_2358_107" x1="20.4044" y1="31.79" x2="20.4044" y2="23.28" gradientUnits="userSpaceOnUse">
<stop stop-color="#1FD1F9"/>
<stop offset="1" stop-color="#07463E"/>
</linearGradient>
<linearGradient id="paint8_linear_2358_107" x1="36.3197" y1="23.4775" x2="36.3197" y2="22.246" gradientUnits="userSpaceOnUse">
<stop stop-color="#1FD1F9"/>
<stop offset="1" stop-color="#07463E"/>
</linearGradient>
<linearGradient id="paint9_linear_2358_107" x1="36.1091" y1="27.6852" x2="36.1091" y2="26.4537" gradientUnits="userSpaceOnUse">
<stop stop-color="#1FD1F9"/>
<stop offset="1" stop-color="#07463E"/>
</linearGradient>
<linearGradient id="paint10_linear_2358_107" x1="36.4213" y1="32.0979" x2="36.4213" y2="30.8664" gradientUnits="userSpaceOnUse">
<stop stop-color="#1FD1F9"/>
<stop offset="1" stop-color="#07463E"/>
</linearGradient>
<linearGradient id="paint11_linear_2358_107" x1="35.2818" y1="35.2793" x2="35.2818" y2="34.1504" gradientUnits="userSpaceOnUse">
<stop stop-color="#1FD1F9"/>
<stop offset="1" stop-color="#07463E"/>
</linearGradient>
<linearGradient id="paint12_linear_2358_107" x1="9.61159" y1="9.62329" x2="9.61159" y2="3.72705" gradientUnits="userSpaceOnUse">
<stop stop-color="#1FD1F9"/>
<stop offset="1" stop-color="#07463E"/>
</linearGradient>
<linearGradient id="paint13_linear_2358_107" x1="5.25772" y1="11.0121" x2="5.25772" y2="5.60925" gradientUnits="userSpaceOnUse">
<stop stop-color="#1FD1F9"/>
<stop offset="1" stop-color="#07463E"/>
</linearGradient>
<linearGradient id="paint14_linear_2358_107" x1="2.76734" y1="13.1125" x2="2.76734" y2="9.97697" gradientUnits="userSpaceOnUse">
<stop stop-color="#1FD1F9"/>
<stop offset="1" stop-color="#07463E"/>
</linearGradient>
</defs>
</svg>
