<svg width="20" height="35" viewBox="0 0 20 35" fill="none" xmlns="http://www.w3.org/2000/svg">
<g id="Black">
<path id="Vector" d="M1.61531 0.155396C1.12209 0.358089 0.730219 0.682396 0.439694 1.12156C-0.0332542 1.83099 0.000527844 0.655369 0.000527844 17.2964C0.000527844 33.9374 -0.0332542 32.7618 0.439694 33.4712C0.730219 33.9104 1.12209 34.2347 1.61531 34.4374L1.99367 34.5928H10H18.0063L18.3847 34.4374C18.8779 34.2347 19.2698 33.9104 19.5603 33.4712C20.0333 32.7618 19.9995 33.9374 19.9995 17.2964C19.9995 0.655369 20.0333 1.83099 19.5603 1.12156C19.2698 0.682396 18.8779 0.358089 18.3847 0.155396L18.0063 0H10H1.99367L1.61531 0.155396ZM17.6415 1.08102C18.1347 1.17561 18.4996 1.43911 18.7293 1.88504C18.9117 2.22961 18.9184 2.29042 18.9184 3.14848V4.05384H10H1.08155V3.14848C1.08155 2.29042 1.08831 2.22961 1.27073 1.88504C1.49369 1.45938 1.86529 1.17561 2.2977 1.08778C2.73687 0.999947 17.1888 0.993191 17.6415 1.08102ZM18.9184 16.2829V27.4986H11.6283H4.33138L4.19625 27.6742C4.11518 27.7756 4.05437 27.9242 4.05437 28.0053C4.05437 28.0864 4.11518 28.235 4.19625 28.3363L4.33138 28.512H11.6283H18.9184V30.4308V32.3496L18.7293 32.7077C18.4996 33.1537 18.1347 33.4172 17.6415 33.5117C17.1483 33.6063 2.85173 33.6063 2.35851 33.5117C1.86529 33.4172 1.50045 33.1537 1.27073 32.7077L1.08155 32.3496V30.4308V28.512H1.95313C2.81795 28.512 2.83146 28.512 2.96659 28.3363C3.14901 28.1066 3.14901 27.9039 2.96659 27.6742C2.83146 27.4986 2.81795 27.4986 1.95313 27.4986H1.08155V16.2829V5.0673H10H18.9184V16.2829Z" fill="white"/>
<path id="Vector_2" d="M7.57548 2.20258C7.4944 2.30393 7.43359 2.45257 7.43359 2.53364C7.43359 2.61472 7.4944 2.76336 7.57548 2.86471C7.68358 2.99984 7.77141 3.04037 7.97411 3.04037C8.1768 3.04037 8.26463 2.99984 8.37273 2.86471C8.45381 2.76336 8.51462 2.61472 8.51462 2.53364C8.51462 2.45257 8.45381 2.30393 8.37273 2.20258C8.26463 2.06745 8.1768 2.02691 7.97411 2.02691C7.77141 2.02691 7.68358 2.06745 7.57548 2.20258Z" fill="white"/>
<path id="Vector_3" d="M9.59892 2.20258C9.51784 2.30393 9.45703 2.45257 9.45703 2.53364C9.45703 2.61472 9.51784 2.76336 9.59892 2.86471L9.73404 3.04037H11.011H12.288L12.4231 2.86471C12.5042 2.76336 12.565 2.61472 12.565 2.53364C12.565 2.45257 12.5042 2.30393 12.4231 2.20258L12.288 2.02691H11.011H9.73404L9.59892 2.20258Z" fill="white"/>
<path id="Vector_4" d="M9.33568 29.6336C8.76139 29.9309 8.48438 30.3903 8.48438 31.0457C8.48438 31.7146 8.76814 32.1808 9.35595 32.4646C9.74107 32.647 10.491 32.5862 10.8356 32.3497C11.7747 31.7078 11.7747 30.3836 10.8356 29.7417C10.6194 29.5931 10.4843 29.5593 10.0654 29.539C9.69377 29.5255 9.49784 29.5525 9.33568 29.6336ZM10.3356 30.7552C10.4099 30.8363 10.4708 30.9646 10.4708 31.0457C10.4708 31.2552 10.2275 31.4849 9.99781 31.4849C9.76809 31.4849 9.52486 31.2552 9.52486 31.0457C9.52486 30.8363 9.76809 30.6065 9.99781 30.6065C10.1127 30.6065 10.2546 30.6674 10.3356 30.7552Z" fill="white"/>
</g>
</svg>
