<svg width="62" height="40" viewBox="0 0 62 40" fill="none" xmlns="http://www.w3.org/2000/svg">
<g id="Black">
<path id="Vector" d="M44.2829 0.0582657C42.9376 0.177315 41.6995 0.427322 38.1279 1.2964C30.9849 3.03455 30.6039 3.04645 24.3418 1.52259C19.8774 0.439228 18.3773 0.165409 16.5916 0.0939789C13.3057 -0.0369759 11.139 0.736858 8.88893 2.85597C5.76978 5.79654 3.54352 10.2967 1.91252 16.9636C0.864868 21.297 0.424378 24.3686 0.329137 28.1663C0.233896 32.1307 0.543429 34.726 1.36488 36.5832C1.97205 37.9523 3.11494 39.1309 4.4245 39.7381C4.93642 39.9643 5.18643 40 6.66267 40C8.10319 39.9881 8.43653 39.9524 9.10322 39.7143C11.8652 38.7262 14.9486 36.6785 18.6273 33.4046C19.4488 32.6664 20.4845 31.8331 20.9369 31.5235C22.4013 30.5592 24.568 29.7973 27.199 29.333C28.4014 29.1187 33.1397 29.1187 34.3421 29.333C36.9731 29.7973 39.1399 30.5592 40.6042 31.5235C41.0566 31.8331 42.0924 32.6664 42.9138 33.4046C46.6163 36.7023 49.8069 38.8095 52.3784 39.6667C53.2237 39.9524 53.5213 39.9881 54.938 40C56.5333 40 56.5571 40 57.3666 39.5952C58.5214 39.0238 59.331 38.1666 59.9858 36.8213C61.0096 34.7141 61.3192 32.5474 61.212 28.1544C61.0334 20.547 58.7119 11.5586 55.6404 6.52275C52.6641 1.66546 49.0688 -0.382225 44.2829 0.0582657ZM19.3416 3.33218C20.0917 3.47504 22.056 3.92743 23.687 4.33221C30.1158 5.90369 31.4611 5.89178 38.3541 4.21316C43.9853 2.84407 45.8901 2.71311 48.1402 3.52266C52.9379 5.26081 56.6761 13.3563 58.1167 25.071C58.3667 27.1544 58.4024 31.4521 58.1643 32.7974C57.8071 34.8927 57.1047 36.3808 56.1999 36.9047C55.2237 37.4761 53.6165 37.2618 51.7117 36.3213C49.6164 35.2737 47.7354 33.9046 44.6996 31.214C43.7472 30.3687 42.6757 29.4759 42.3186 29.2259C36.9731 25.5829 27.2467 25.1424 20.7703 28.2496C19.3178 28.952 18.544 29.4997 16.7225 31.095C12.8772 34.4641 10.3652 36.1427 8.10319 36.8332C5.00786 37.7856 3.60305 36.1546 3.23399 31.214C2.72207 24.059 5.29358 12.9396 8.67464 7.73708C11.389 3.57028 14.3653 2.34405 19.3416 3.33218Z" fill="url(#paint0_linear_2358_98)"/>
<path id="Vector_2" d="M15.617 7.67752C13.9741 8.0942 12.5574 9.55853 12.2717 11.1419C12.2002 11.5348 12.1526 11.5824 11.7479 11.6538C9.97399 11.9396 8.35489 13.6182 8.16441 15.392C7.89059 17.8088 9.42635 20.0231 11.6169 20.3922C12.1169 20.4755 12.1526 20.5113 12.2717 21.0113C12.5098 21.9399 12.7717 22.428 13.3789 23.0709C14.2717 24.0233 15.0813 24.3804 16.4147 24.44C17.6766 24.4995 18.4743 24.2614 19.379 23.5709C19.9743 23.1185 20.6648 22.1423 20.891 21.428C21.1886 20.4755 21.2243 20.416 21.5577 20.416C21.7244 20.416 22.2125 20.2493 22.6172 20.0589C24.8197 19.0112 25.7364 16.273 24.6411 14.0349C24.0816 12.9039 22.772 11.8919 21.5696 11.6657C21.2243 11.5943 21.1172 11.511 21.0577 11.261C20.7124 9.68949 19.9148 8.65374 18.5219 7.99896C17.6885 7.60609 16.4623 7.47513 15.617 7.67752ZM17.3195 10.5705C17.8552 10.8443 18.1528 11.4395 18.1528 12.2491C18.1528 13.2372 18.3314 13.7968 18.76 14.1539C19.0814 14.4277 19.2362 14.4634 20.0338 14.4634C21.0696 14.4634 21.6172 14.6658 22.0101 15.2135C22.522 15.904 22.1768 17.1183 21.4029 17.4159C21.2124 17.4874 20.641 17.5588 20.1172 17.5945C18.6052 17.6659 18.1528 18.1302 18.1528 19.666C18.1528 20.6422 17.879 21.1779 17.2599 21.4399C16.7123 21.6661 16.379 21.6541 15.9266 21.3684C15.3075 20.9994 15.1646 20.666 15.0813 19.416C14.998 18.404 14.9503 18.2374 14.6884 17.9636C14.3313 17.6064 13.7241 17.4516 12.7122 17.4397C12.105 17.4397 11.9145 17.3921 11.6288 17.1421C10.9264 16.5588 10.8431 15.6659 11.4264 15.0349C11.7836 14.642 12.3788 14.4634 13.3074 14.4634C14.617 14.4634 14.986 14.0587 15.0813 12.5467C15.1289 11.8562 15.2242 11.3919 15.367 11.1419C15.748 10.499 16.6528 10.2371 17.3195 10.5705Z" fill="url(#paint1_linear_2358_98)"/>
<path id="Vector_3" d="M43.1024 8.08232C41.4357 8.70139 40.7809 10.5229 41.6619 12.0467C42.531 13.523 44.662 13.7849 45.8882 12.5587C46.9002 11.5467 46.9359 9.83238 45.9597 8.77282C45.3287 8.07042 43.9953 7.74898 43.1024 8.08232Z" fill="url(#paint2_linear_2358_98)"/>
<path id="Vector_4" d="M38.0691 13.4039C37.1047 13.5825 36.5571 14.023 36.1404 14.9397C35.0571 17.3326 37.7119 19.6779 39.9858 18.3445C40.7715 17.8802 41.1644 17.2374 41.2239 16.3088C41.2835 15.404 41.1049 14.8206 40.6168 14.273C39.9739 13.5349 39.0572 13.2253 38.0691 13.4039Z" fill="url(#paint3_linear_2358_98)"/>
<path id="Vector_5" d="M48.866 13.3802C47.5921 13.6421 46.6992 14.7135 46.6992 15.9993C46.6992 17.1779 47.2111 17.9994 48.1993 18.4637C49.3064 18.9875 50.4017 18.797 51.2589 17.9279C52.128 17.0707 52.3184 15.9755 51.7946 14.8564C51.4613 14.1421 50.747 13.5587 50.0684 13.4397C49.8303 13.404 49.5565 13.3563 49.4612 13.3325C49.366 13.3206 49.0922 13.3444 48.866 13.3802Z" fill="url(#paint4_linear_2358_98)"/>
<path id="Vector_6" d="M42.8541 18.9756C41.235 19.7018 40.7826 21.809 41.9374 23.1543C42.485 23.7972 43.1398 24.1067 43.9851 24.1067C46.2828 24.1067 47.5328 21.4399 46.0447 19.7018C45.8065 19.4161 45.3899 19.0946 45.128 18.9756C44.497 18.6899 43.4731 18.6899 42.8541 18.9756Z" fill="url(#paint5_linear_2358_98)"/>
</g>
<defs>
<linearGradient id="paint0_linear_2358_98" x1="30.7723" y1="40" x2="30.7723" y2="0" gradientUnits="userSpaceOnUse">
<stop stop-color="#1FD1F9"/>
<stop offset="1" stop-color="#07463E"/>
</linearGradient>
<linearGradient id="paint1_linear_2358_98" x1="16.6185" y1="24.4487" x2="16.6185" y2="7.58326" gradientUnits="userSpaceOnUse">
<stop stop-color="#1FD1F9"/>
<stop offset="1" stop-color="#07463E"/>
</linearGradient>
<linearGradient id="paint2_linear_2358_98" x1="43.9698" y1="13.3368" x2="43.9698" y2="7.95012" gradientUnits="userSpaceOnUse">
<stop stop-color="#1FD1F9"/>
<stop offset="1" stop-color="#07463E"/>
</linearGradient>
<linearGradient id="paint3_linear_2358_98" x1="38.5628" y1="18.7322" x2="38.5628" y2="13.3545" gradientUnits="userSpaceOnUse">
<stop stop-color="#1FD1F9"/>
<stop offset="1" stop-color="#07463E"/>
</linearGradient>
<linearGradient id="paint4_linear_2358_98" x1="49.3919" y1="18.7535" x2="49.3919" y2="13.3294" gradientUnits="userSpaceOnUse">
<stop stop-color="#1FD1F9"/>
<stop offset="1" stop-color="#07463E"/>
</linearGradient>
<linearGradient id="paint5_linear_2358_98" x1="43.9916" y1="24.1067" x2="43.9916" y2="18.7613" gradientUnits="userSpaceOnUse">
<stop stop-color="#1FD1F9"/>
<stop offset="1" stop-color="#07463E"/>
</linearGradient>
</defs>
</svg>
