<svg width="29" height="25" viewBox="0 0 29 25" fill="none" xmlns="http://www.w3.org/2000/svg">
<g id="Black">
<path id="Vector" d="M23.0429 1.81864C20.4588 2.81514 14.3165 5.18534 9.39036 7.08825C4.46417 8.98554 0.359952 10.5957 0.264243 10.6689C-0.051033 10.8997 -0.0904425 11.412 0.179794 11.7555C0.258613 11.8568 1.08058 12.189 3.70413 13.1686L7.12713 14.4466L7.36921 15.2291C7.50433 15.657 8.08984 17.5543 8.67535 19.4403C9.61555 22.4523 9.76193 22.8858 9.91394 23.0322C10.1222 23.2405 10.4938 23.3024 10.7472 23.173C10.8429 23.1223 11.7831 22.3791 12.8415 21.5121C14.1476 20.4481 14.8345 19.9189 14.9865 19.8795C15.3074 19.7837 15.5045 19.795 15.786 19.9358C15.9211 20.0089 17.2779 20.966 18.7923 22.0695C22.7389 24.9351 22.8177 24.9914 22.9472 24.9971C23.3244 25.0196 23.589 24.9126 23.741 24.6874C23.7917 24.603 24.1914 22.8183 24.7038 20.3636C25.1767 18.061 26.2464 12.9378 27.0683 8.97428C29.0107 -0.348879 28.808 0.715178 28.6785 0.41679C28.549 0.124035 28.3294 -0.00545311 27.986 0.000175476C27.8059 0.000175476 26.5053 0.47872 23.0429 1.81864ZM22.5531 5.23601C22.6657 5.41617 23.1837 4.9151 16.1744 11.4233C11.0793 16.1581 11.4903 15.7471 11.2764 16.3101C11.2145 16.479 11.0793 17.2221 10.9667 18.0722C10.8541 18.883 10.7415 19.598 10.7078 19.6543C10.6289 19.8006 10.3981 19.84 10.2461 19.7387C10.1335 19.6655 10.004 19.2602 9.37347 17.042C8.96248 15.6063 8.63032 14.3283 8.63032 14.2045C8.63032 13.9511 8.84425 13.4782 9.0413 13.2981C9.10886 13.2305 11.5241 11.7273 14.401 9.95389C17.2835 8.18046 20.2223 6.36762 20.9317 5.92849C22.2379 5.11778 22.4293 5.03333 22.5531 5.23601Z" fill="white"/>
</g>
</svg>
