<svg width="61.071" height="72.115" viewBox="0 0 62 73" fill="none" xmlns="http://www.w3.org/2000/svg">
<g id="control">
<path id="Vector" d="M31.3149 0.95826C31.0634 1.18887 30.1945 2.2036 29.3942 3.21832C28.594 4.23303 27.7708 5.27081 27.5422 5.52449C27.0849 6.07797 12.0625 25.0117 9.9818 27.6638C5.61457 33.2217 4.58564 34.5132 3.2366 36.1967C0.0812255 40.0941 -0.193155 40.4862 0.0812256 40.8782C0.287011 41.2241 1.24734 41.2703 9.61596 41.3394C15.4694 41.3625 18.8992 41.4778 18.8992 41.6162C18.8992 41.7315 18.6934 42.3772 18.419 43.046C18.1675 43.7148 17.3901 45.8134 16.7041 47.7276C15.9953 49.6186 15.195 51.8095 14.8978 52.5705C14.6005 53.3316 13.503 56.2374 12.4741 59.0278C11.4452 61.8183 10.3705 64.7241 10.0961 65.4851C8.60989 69.4748 7.94681 71.2967 7.83248 71.7349C7.64956 72.3576 8.26692 72.9341 8.74708 72.6112C8.93 72.4959 15.9953 63.6863 24.4554 53.0318L39.8207 33.6599L50.27 33.5907C60.3078 33.5446 60.7422 33.5215 60.9709 33.1064C61.1309 32.7605 61.1081 32.576 60.8337 32.2992C60.5136 31.9764 58.3185 31.9302 40.1865 31.9302C21.9174 31.9302 19.8366 31.9764 19.5623 32.2992C19.3565 32.5529 19.3336 32.7605 19.5165 33.0372C19.8824 33.6368 24.0209 33.7291 24.7069 33.1525C25.1413 32.7835 25.1413 32.7835 24.867 33.1295C24.5926 33.5215 24.9355 33.5446 31.2463 33.5907L37.9229 33.6599L26.1245 48.5347C19.6537 56.7217 14.2576 63.5018 14.1661 63.6402C14.0518 63.7555 13.4116 64.5396 12.7485 65.3698C12.0854 66.2001 11.4223 66.9611 11.308 67.0995C10.9193 67.4915 11.1936 66.6382 13.5945 60.2962C14.0975 58.9587 15.1036 56.2604 15.8124 54.3002C16.5212 52.3399 17.2986 50.2644 17.5273 49.6878C18.1218 48.281 19.9967 43.1844 20.4997 41.6623C20.8427 40.6245 20.8656 40.3939 20.5912 40.1172C20.3397 39.8635 18.6477 39.7943 11.4452 39.7943C6.5749 39.7943 2.57352 39.7482 2.50492 39.7021C2.45919 39.6329 4.92862 36.4504 7.96967 32.599C11.0336 28.7477 13.7317 25.3115 13.9832 24.9886C14.2347 24.6427 15.7209 22.7747 17.2986 20.8375C22.2375 14.68 28.5254 6.70065 28.7311 6.33166C28.8455 6.14716 29.0055 6.05492 29.0741 6.14716C29.1656 6.23941 28.8683 7.27719 28.411 8.4764C27.9537 9.65255 27.5879 10.7826 27.5879 10.9671C27.5879 11.1516 27.4964 11.4052 27.3821 11.5436C27.1992 11.7512 26.8333 12.6736 25.5072 16.4097C24.7526 18.6005 24.7069 18.8542 25.1871 19.2463C25.4386 19.4538 25.5986 19.4769 25.8273 19.2693C26.0102 19.1309 26.9477 16.8017 27.9309 14.1265C28.8912 11.4283 29.943 8.56865 30.2402 7.78455C30.5375 7.00045 31.2006 5.20163 31.7036 3.81792C32.5039 1.53481 32.5725 1.235 32.2524 0.912132C31.8179 0.473961 31.8408 0.473961 31.3149 0.95826Z" fill="url(#paint0_linear_2029_1189)"/>
<path id="Vector_2" d="M22.1664 22.0137C21.2061 22.4058 20.9317 23.1899 20.9774 25.4499C21.0232 28.1712 21.3661 28.7017 23.0124 28.7017C23.8813 28.7017 24.2471 28.5864 24.613 28.1943C25.1389 27.5947 25.2303 26.8567 24.7273 26.8567C24.5444 26.8567 24.3843 26.9951 24.3843 27.1796C24.3843 27.7331 23.7212 28.2404 23.0124 28.2404C21.9835 28.2404 21.6405 27.5255 21.6405 25.3577C21.6405 23.1899 21.9835 22.475 23.0124 22.475C23.7212 22.475 24.3843 22.9823 24.3843 23.5358C24.3843 23.7203 24.5444 23.8587 24.7273 23.8587C24.9102 23.8587 25.0703 23.6973 25.0703 23.4897C25.0703 22.844 24.6358 22.2905 23.9042 22.0368C23.0582 21.737 22.8524 21.737 22.1664 22.0137Z" fill="url(#paint1_linear_2029_1189)"/>
<path id="Vector_3" d="M28.1352 21.9907C27.0377 22.4519 26.6719 23.3283 26.6719 25.3808C26.6719 27.0873 26.7405 27.3641 27.2664 27.9867C27.7694 28.6094 27.998 28.7017 28.9584 28.7017C29.9187 28.7017 30.1474 28.6094 30.6504 27.9867C31.1763 27.341 31.2449 27.0873 31.2449 25.3346C31.2449 23.5589 31.1992 23.3513 30.6275 22.7056C29.9416 21.9676 28.9127 21.6678 28.1352 21.9907ZM30.0102 22.9593C30.3532 23.3513 30.4446 23.8126 30.4446 25.3577C30.4446 27.5255 30.0788 28.2404 28.9355 28.2404C27.8609 28.2404 27.3578 27.318 27.3578 25.3577C27.3578 24.0201 27.4493 23.5589 27.838 23.0746C28.4096 22.3366 29.3928 22.2674 30.0102 22.9593Z" fill="url(#paint2_linear_2029_1189)"/>
<path id="Vector_4" d="M51.6442 22.129C50.7067 22.5441 50.2266 23.628 50.2266 25.3576C50.2266 26.8336 50.6839 28.102 51.3241 28.4479C52.1701 28.9092 53.6335 28.7477 54.2051 28.1712C54.8453 27.5254 55.1426 25.7727 54.9139 24.2737C54.6853 22.89 54.4109 22.4749 53.542 22.1059C52.6045 21.7139 52.5817 21.7139 51.6442 22.129ZM53.6563 22.9361C54.045 23.3282 54.1136 23.6972 54.1136 25.3576C54.1136 27.5254 53.7478 28.2404 52.6274 28.2404C51.4841 28.2404 51.1412 27.5485 51.1412 25.2654C51.1412 23.3743 51.1869 23.1668 51.6442 22.8439C52.353 22.3365 53.1076 22.3827 53.6563 22.9361Z" fill="url(#paint3_linear_2029_1189)"/>
<path id="Vector_5" d="M33.0781 25.3577C33.0781 28.1712 33.1239 28.7017 33.4211 28.7017C33.6955 28.7017 33.7641 28.2865 33.7641 26.2802C33.7641 24.9426 33.8327 23.8587 33.947 23.8587C34.0385 23.8587 34.3814 24.343 34.6787 24.9426C37.2167 29.8086 37.4225 29.8317 37.4225 25.3577C37.4225 22.5442 37.3768 22.0137 37.0795 22.0137C36.8051 22.0137 36.7365 22.4289 36.7365 24.4352C36.7365 25.7728 36.6451 26.8567 36.5536 26.8567C36.4393 26.8567 35.7991 25.7728 35.1131 24.4352C34.2671 22.7748 33.7641 22.0137 33.4897 22.0137C33.1239 22.0137 33.0781 22.3366 33.0781 25.3577Z" fill="url(#paint4_linear_2029_1189)"/>
<path id="Vector_6" d="M38.793 22.2444C38.793 22.3597 39.2045 22.475 39.7076 22.475H40.6222V25.5883C40.6222 28.1712 40.6679 28.7017 40.9651 28.7017C41.2395 28.7017 41.3081 28.1482 41.3539 25.6344L41.4225 22.5903L42.2913 22.5211C42.7486 22.475 43.1373 22.3597 43.1373 22.2213C43.1373 22.106 42.177 22.0137 40.9651 22.0137C39.6618 22.0137 38.793 22.106 38.793 22.2444Z" fill="url(#paint5_linear_2029_1189)"/>
<path id="Vector_7" d="M44.7383 25.3577C44.7383 28.1712 44.784 28.7017 45.0813 28.7017C45.3556 28.7017 45.4242 28.3788 45.4242 27.2026V25.7036H46.2931C47.3449 25.7036 47.7107 26.0265 47.7107 26.949C47.7107 28.079 47.9623 28.7017 48.3738 28.7017C48.7168 28.7017 48.7397 28.5172 48.6253 27.4102C48.5339 26.5339 48.351 26.0034 48.0766 25.7959C47.665 25.5191 47.6879 25.473 48.1452 24.8734C48.7854 24.0662 48.7625 23.2821 48.0537 22.5903C47.5964 22.106 47.2763 22.0137 46.1102 22.0137H44.7383V25.3577ZM47.3449 22.844C47.5507 23.0285 47.7107 23.5589 47.7107 23.974C47.7107 24.8734 47.162 25.3116 46.1559 25.1963C45.5843 25.1271 45.5386 25.0579 45.47 23.7895L45.4014 22.475H46.2016C46.6361 22.475 47.162 22.6364 47.3449 22.844Z" fill="url(#paint6_linear_2029_1189)"/>
<path id="Vector_8" d="M56.6445 25.3577V28.7017H58.4509C59.5255 28.7017 60.2801 28.6094 60.2801 28.471C60.2801 28.3327 59.6627 28.2404 58.9082 28.2404H57.5363V25.1271C57.5363 22.1982 57.5134 22.0137 57.079 22.0137C56.6674 22.0137 56.6445 22.1982 56.6445 25.3577Z" fill="url(#paint7_linear_2029_1189)"/>
</g>
<defs>
<linearGradient id="paint0_linear_2029_1189" x1="30.5354" y1="72.7039" x2="30.5354" y2="0.589058" gradientUnits="userSpaceOnUse">
<stop stop-color="#1FD1F9"/>
<stop offset="1" stop-color="#07463E"/>
</linearGradient>
<linearGradient id="paint1_linear_2029_1189" x1="23.0215" y1="28.7017" x2="23.0215" y2="21.809" gradientUnits="userSpaceOnUse">
<stop stop-color="#1FD1F9"/>
<stop offset="1" stop-color="#07463E"/>
</linearGradient>
<linearGradient id="paint2_linear_2029_1189" x1="28.9584" y1="28.7017" x2="28.9584" y2="21.8617" gradientUnits="userSpaceOnUse">
<stop stop-color="#1FD1F9"/>
<stop offset="1" stop-color="#07463E"/>
</linearGradient>
<linearGradient id="paint3_linear_2029_1189" x1="52.6085" y1="28.7158" x2="52.6085" y2="21.8147" gradientUnits="userSpaceOnUse">
<stop stop-color="#1FD1F9"/>
<stop offset="1" stop-color="#07463E"/>
</linearGradient>
<linearGradient id="paint4_linear_2029_1189" x1="35.2503" y1="28.7017" x2="35.2503" y2="22.0137" gradientUnits="userSpaceOnUse">
<stop stop-color="#1FD1F9"/>
<stop offset="1" stop-color="#07463E"/>
</linearGradient>
<linearGradient id="paint5_linear_2029_1189" x1="40.9651" y1="28.7017" x2="40.9651" y2="22.0137" gradientUnits="userSpaceOnUse">
<stop stop-color="#1FD1F9"/>
<stop offset="1" stop-color="#07463E"/>
</linearGradient>
<linearGradient id="paint6_linear_2029_1189" x1="46.7127" y1="28.7017" x2="46.7127" y2="22.0137" gradientUnits="userSpaceOnUse">
<stop stop-color="#1FD1F9"/>
<stop offset="1" stop-color="#07463E"/>
</linearGradient>
<linearGradient id="paint7_linear_2029_1189" x1="58.4623" y1="28.7017" x2="58.4623" y2="22.0137" gradientUnits="userSpaceOnUse">
<stop stop-color="#1FD1F9"/>
<stop offset="1" stop-color="#07463E"/>
</linearGradient>
</defs>
</svg>
