<svg width="75" height="75" viewBox="0 0 75 75" fill="none" xmlns="http://www.w3.org/2000/svg">
<g id="fi-br-caret-up">
<path id="Vector" d="M54.9577 26.2935L20.0452 26.2935C19.4272 26.2936 18.8232 26.477 18.3094 26.8204C17.7956 27.1637 17.3952 27.6518 17.1587 28.2227C16.9222 28.7936 16.8604 29.4219 16.9809 30.028C17.1014 30.6341 17.3989 31.1908 17.8358 31.6279L35.2921 49.0841C35.8781 49.6699 36.6728 49.999 37.5014 49.999C38.3301 49.999 39.1248 49.6699 39.7108 49.0841L57.1671 31.6279C57.604 31.1908 57.9015 30.6341 58.022 30.028C58.1425 29.4219 58.0807 28.7936 57.8442 28.2227C57.6077 27.6518 57.2073 27.1637 56.6935 26.8204C56.1797 26.477 55.5757 26.2936 54.9577 26.2935Z" fill="url(#paint0_linear_2174_105)"/>
</g>
<defs>
<linearGradient id="paint0_linear_2174_105" x1="37.5014" y1="49.999" x2="37.5014" y2="26.2935" gradientUnits="userSpaceOnUse">
<stop stop-color="#1FD1F9"/>
<stop offset="1" stop-color="#1A3281"/>
</linearGradient>
</defs>
</svg>
