<svg width="35" height="35" viewBox="0 0 35 35" fill="white" xmlns="http://www.w3.org/2000/svg">
<path d="M7.04194 0.138967C4.43027 0.685914 2.26983 2.28573 1.03236 4.58975C0.560621 5.45803 0.252963 6.36049 0.0683684 7.40653C0.0273474 7.67316 0 11.1736 0 17.5182C0 27.0488 0 27.2334 0.143574 27.9102C0.5196 29.7698 1.40155 31.3765 2.73474 32.6276C3.96537 33.783 5.38743 34.5146 7.0898 34.8564C7.76665 35 7.95124 35 17.5023 35C27.0534 35 27.238 35 27.9148 34.8564C29.7744 34.4804 31.3811 33.5984 32.6322 32.2653C33.7877 31.0346 34.5192 29.6126 34.861 27.9102C35.0046 27.2334 35.0046 27.0488 35.0046 17.5182C35.0046 11.1736 34.9773 7.67316 34.9362 7.40653C34.444 4.56924 32.7758 2.25155 30.294 0.966225C29.501 0.556014 28.8446 0.323562 27.9148 0.138967C27.238 -0.00460625 27.067 -0.00460625 17.4544 0.00223059C7.97859 0.00223059 7.67093 0.00906743 7.04194 0.138967ZM27.655 3.12667C29.8018 3.72831 31.3127 5.25292 31.8733 7.37918L32.0306 7.96031V17.4977V27.0351L31.8733 27.6162C31.3059 29.7561 29.7608 31.3013 27.6208 31.8687L27.0397 32.026H17.5023H7.96492L7.38378 31.8687C5.24385 31.3013 3.69873 29.7561 3.13127 27.6162L2.97402 27.0351V17.4977V7.96031L3.13127 7.37918C3.73975 5.07516 5.48314 3.46167 7.81451 3.03779C8.21104 2.96258 10.2074 2.94891 17.7074 2.95574L27.1081 2.96942L27.655 3.12667Z" fill="white"/>
<path d="M26.1794 5.96416C25.9606 6.05304 25.7144 6.18977 25.6187 6.26498C24.5453 7.10591 24.4907 8.74675 25.5025 9.66289C25.8512 9.97738 26.07 10.0868 26.5691 10.1825C27.5672 10.3808 28.5449 9.88167 28.9825 8.95869C29.2354 8.41858 29.2354 7.57082 28.9961 7.07173C28.7774 6.64101 28.3603 6.22396 27.9296 6.01202C27.4305 5.76589 26.6921 5.74538 26.1794 5.96416Z" fill="white"/>
<path d="M15.9519 8.84903C14.7007 9.08148 13.2582 9.70364 12.26 10.4489C11.59 10.9479 10.6602 11.9119 10.2431 12.5409C9.55259 13.587 9.06034 14.8108 8.85524 15.973C8.72534 16.7524 8.72534 18.2428 8.85524 19.0222C9.15606 20.7178 9.95597 22.3039 11.1456 23.5414C12.4583 24.9088 14.1538 25.8249 15.9792 26.1462C16.7586 26.2761 18.2491 26.2761 19.0285 26.1462C22.6315 25.5104 25.5166 22.6253 26.1524 19.0222C26.2823 18.2428 26.2823 16.7524 26.1524 15.973C25.9473 14.8039 25.4551 13.587 24.7577 12.5409C24.3475 11.9119 23.4109 10.9411 22.7614 10.4557C21.729 9.68996 20.3001 9.07465 19.0285 8.84903C18.2969 8.72597 16.6492 8.72597 15.9519 8.84903ZM18.9054 11.8914C20.977 12.4247 22.5563 13.9972 23.1169 16.0961C23.2331 16.52 23.2673 16.8413 23.2673 17.4976C23.2673 18.154 23.2331 18.4753 23.1169 18.8992C22.5563 20.9981 21.0043 22.5432 18.9054 23.1107C18.1328 23.3226 16.8748 23.3226 16.1023 23.1107C14.0034 22.5432 12.4514 20.9981 11.8908 18.8992C11.6857 18.1335 11.6857 16.8618 11.8908 16.0961C12.7249 12.9716 15.8425 11.1052 18.9054 11.8914Z" fill="white"/>
</svg>
