<svg width="37" height="35" viewBox="0 0 37 35" fill="none" xmlns="http://www.w3.org/2000/svg">
<path d="M3.27798 0.102485C1.96675 0.402194 0.917765 1.18893 0.421372 2.25665C-0.740002 4.73861 0.599324 7.52029 3.21241 8.07288C5.48833 8.55991 7.63313 7.66078 8.51352 5.88126C8.80387 5.2912 8.81323 5.21628 8.81323 4.13919C8.81323 3.2026 8.77577 2.93099 8.59782 2.50016C8.19508 1.49801 7.32405 0.66444 6.25634 0.280437C5.4696 -0.00990613 4.12091 -0.0848335 3.27798 0.102485Z" fill="white"/>
<path d="M26.6551 10.8359C24.2856 11.0326 22.3656 12.091 20.97 13.9642L20.5673 14.5074V12.9058V11.3042H16.6149H12.6531L12.6437 23.1521L12.625 35H16.5961H20.5673V27.9756C20.5673 23.1989 20.6048 20.8013 20.6703 20.4641C20.7265 20.1925 20.9045 19.7148 21.0637 19.4151C21.9347 17.7667 23.5738 16.8957 25.3907 17.1205C26.2243 17.2329 26.8987 17.5607 27.4325 18.132C27.9383 18.6658 28.1724 19.106 28.4534 20.0239C28.6595 20.7076 28.6595 20.7732 28.6969 27.8632L28.725 35H32.7055H36.686L36.6486 27.2919C36.6111 18.9375 36.6111 18.9749 36.0679 17.0643C34.841 12.7934 31.31 10.4519 26.6551 10.8359Z" fill="white"/>
<path d="M0.429688 23.1521V35H4.4102H8.39072V23.1521V11.3042H4.4102H0.429688V23.1521Z" fill="white"/>
</svg>
