<svg width="48" height="30" viewBox="0 0 48 30" fill="none" xmlns="http://www.w3.org/2000/svg">
<path d="M1.92608 0.140581C1.30752 0.337394 0.979499 0.54358 0.632732 0.955951C-0.248242 1.97751 -0.210754 3.5239 0.754569 6.52296C2.76019 12.7085 6.61211 19.2221 10.7733 23.477C13.032 25.7732 15.0001 27.254 17.2869 28.3599C19.6674 29.5127 21.7386 30 24.2316 30C26.5184 30 27.8211 29.6439 28.5896 28.8191C29.2644 28.0881 29.2738 28.0412 29.3019 24.9016C29.3206 23.3646 29.3488 22.0806 29.3769 22.0619C29.4612 21.9775 30.1735 22.418 30.9795 23.0459C32.0479 23.8707 33.2569 25.0609 34.9533 26.926C36.584 28.7348 37.1744 29.269 37.9617 29.6532L38.5709 29.9531H42.226C45.8623 29.9531 45.8811 29.9531 46.3684 29.7282C46.9682 29.4564 47.6243 28.7816 47.8492 28.2006C47.9804 27.8538 48.0085 27.5633 47.9711 26.8604C47.9336 25.9981 47.9148 25.9419 47.3994 24.911C46.5278 23.1865 45.0189 21.2746 41.8605 17.9194C40.8764 16.8697 40.061 15.9606 40.0423 15.9044C40.0329 15.8482 40.2204 15.5295 40.464 15.1921C40.7077 14.8547 41.42 13.8051 42.0479 12.8491C44.3816 9.30647 46.1904 6.04499 46.7902 4.30178C47.3338 2.7179 47.1651 1.5089 46.3028 0.731021C46.1154 0.552952 45.7124 0.31865 45.4125 0.206185C44.8877 0.00937164 44.7658 -4.33065e-07 41.3919 0.0281158L37.9148 0.056232L37.2869 0.36551C36.4622 0.768509 35.9279 1.36832 35.4687 2.41799C33.8661 6.0731 31.5043 10.0281 29.7705 11.9588L29.3488 12.4274L29.33 11.4902C29.3113 10.9747 29.3206 8.86598 29.33 6.80412C29.3581 2.87723 29.3206 2.2493 28.9551 1.41518C28.7208 0.899718 28.3834 0.524836 27.8867 0.262418C27.5212 0.056232 27.4275 0.056232 22.7321 0.0281158L17.9617 -4.33065e-07L17.3713 0.290534C16.4153 0.759137 15.9373 1.52765 15.9373 2.56795C15.9373 3.37395 16.0873 3.7582 16.8558 4.91096C17.8211 6.37301 17.8117 6.29803 17.7836 10.6748L17.7649 14.358L17.4556 14.0019C16.9589 13.4208 15.8155 11.6682 15.0845 10.3655C13.9786 8.37863 13.0601 6.34489 12.1041 3.77694C11.8042 2.97095 11.4481 2.0806 11.3075 1.80881C10.9889 1.17151 10.3984 0.59044 9.79862 0.290534L9.33001 0.056232L5.81549 0.0374879C3.16319 0.0187437 2.20724 0.0468599 1.92608 0.140581ZM8.48653 3.20525C8.57088 3.2896 8.86141 3.96439 9.1332 4.70478C9.85485 6.67291 10.5015 8.18182 11.4481 10.0843C13.8286 14.911 16.331 17.9475 18.1585 18.2474C18.674 18.3224 19.4706 18.1443 19.9017 17.8444C20.136 17.6851 20.3516 17.4039 20.5578 16.9822L20.8577 16.3636L20.8858 11.7245C20.9139 8.47235 20.8858 6.8791 20.8108 6.38238C20.6608 5.4358 20.2485 4.34864 19.7799 3.64574C19.5737 3.33646 19.4144 3.05529 19.4331 3.03655C19.4518 3.01781 20.9982 3.03655 22.8539 3.06467L26.2372 3.13027L26.2653 8.66917C26.3028 14.836 26.2841 14.6673 26.9589 15.4545C28.1304 16.8229 30.4734 16.0169 32.5259 13.5333C34.1566 11.5651 35.6468 9.15651 37.1838 6.0075C37.7742 4.7985 38.3272 3.65511 38.4115 3.47704C38.5053 3.2896 38.6646 3.13027 38.8052 3.09278C38.9364 3.05529 40.1454 3.02718 41.4856 3.01781L43.9317 3.00843L43.8848 3.24274C43.8005 3.6926 42.6665 5.89503 41.6074 7.65698C41.0264 8.63168 39.7892 10.5623 38.8708 11.9494C36.9964 14.7516 36.7902 15.1828 36.8558 16.1293C36.9401 17.1978 37.1088 17.4508 39.6955 20.1593C42.7133 23.3271 45.2157 26.6448 44.7939 26.9166C44.5971 27.0384 39.9579 27.0197 39.5175 26.8978C39.0957 26.776 38.5334 26.2418 36.4622 23.9738C33.7911 21.0403 31.6637 19.4096 29.9673 18.9691C28.6927 18.6504 27.2963 19.044 26.7808 19.8782C26.3403 20.6092 26.2466 21.3308 26.2466 24.1612C26.2466 25.9888 26.2185 26.7291 26.1341 26.776C25.9467 26.8978 24.2785 26.9634 23.3038 26.8885C18.4865 26.5323 13.6037 22.9991 9.28315 16.7198C6.584 12.8022 3.64117 6.46673 3.14445 3.50515L3.07884 3.11153L3.63179 3.07404C3.9317 3.05529 5.11258 3.04592 6.25597 3.04592C8.0273 3.05529 8.36469 3.07404 8.48653 3.20525Z" fill="white"/>
</svg>
