<svg width="280" height="280" viewBox="0 0 310 310" fill="none" xmlns="http://www.w3.org/2000/svg">
<g filter="url(#filter0_f_2233_160)">
<mask id="mask0_2233_160" style="mask-type:alpha" maskUnits="userSpaceOnUse" x="15" y="15" width="280" height="280">
<circle cx="155" cy="155" r="140" fill="#C4C4C4"/>
</mask>
<g mask="url(#mask0_2233_160)">
<g filter="url(#filter1_ii_2233_160)">
<circle cx="155" cy="155" r="140" fill="url(#paint0_radial_2233_160)"/>
<circle cx="155" cy="155" r="140" fill="url(#paint1_radial_2233_160)"/>
</g>
<g filter="url(#filter2_f_2233_160)">
<path d="M153.176 126.91C134.284 112.216 120.791 86.695 153.176 66.5595C185.562 46.424 248.304 98.0465 232.561 126.91C216.817 155.773 176.792 145.277 153.176 126.91Z" fill="white"/>
</g>
<g filter="url(#filter3_f_2233_160)">
<path d="M111.324 216.075C105.794 209.317 109.444 200.966 114.878 194.445C120.313 187.924 140.508 193.143 140.508 204.917C140.508 221.746 122.912 230.238 111.324 216.075Z" fill="white"/>
</g>
<g filter="url(#filter4_f_2233_160)">
<path d="M117.995 211.708C115.256 208.36 117.064 204.223 119.756 200.992C122.448 197.761 132.453 200.347 132.453 206.18C132.453 214.517 123.736 218.724 117.995 211.708Z" fill="white"/>
</g>
<g filter="url(#filter5_f_2233_160)">
<path d="M127.148 134.9C119.888 126.028 124.331 113.49 129.965 106.729C135.6 99.9682 168.841 105.169 165.461 120.251C162.08 135.334 142.36 153.493 127.148 134.9Z" fill="white"/>
</g>
<g style="mix-blend-mode:color-dodge" filter="url(#filter6_f_2233_160)">
<path d="M166.75 118.733C156.242 109.597 144.187 94.3825 162.201 81.8642C180.214 69.3458 222.483 91.8758 213.806 113.285C206.26 131.904 179.886 130.152 166.75 118.733Z" fill="white"/>
</g>
<g filter="url(#filter7_f_2233_160)">
<path d="M145.205 112.445C136.699 105.705 138.695 92.3327 147.872 85.7764C157.049 79.22 188.813 88.7183 185.613 102.996C182.413 117.274 156.729 121.577 145.205 112.445Z" fill="white"/>
</g>
<path d="M152.365 110.348C143.859 103.608 145.855 90.236 155.032 83.6797C164.209 77.1233 195.973 86.6216 192.773 100.899C189.573 115.177 163.889 119.481 152.365 110.348Z" fill="white"/>
</g>
</g>
<defs>
<filter id="filter0_f_2233_160" x="0" y="0" width="310" height="310" filterUnits="userSpaceOnUse" color-interpolation-filters="sRGB">
<feFlood flood-opacity="0" result="BackgroundImageFix"/>
<feBlend mode="normal" in="SourceGraphic" in2="BackgroundImageFix" result="shape"/>
<feGaussianBlur stdDeviation="7.5" result="effect1_foregroundBlur_2233_160"/>
</filter>
<filter id="filter1_ii_2233_160" x="8" y="7" width="290" height="295" filterUnits="userSpaceOnUse" color-interpolation-filters="sRGB">
<feFlood flood-opacity="0" result="BackgroundImageFix"/>
<feBlend mode="normal" in="SourceGraphic" in2="BackgroundImageFix" result="shape"/>
<feColorMatrix in="SourceAlpha" type="matrix" values="0 0 0 0 0 0 0 0 0 0 0 0 0 0 0 0 0 0 127 0" result="hardAlpha"/>
<feOffset dx="-7" dy="7"/>
<feGaussianBlur stdDeviation="10"/>
<feComposite in2="hardAlpha" operator="arithmetic" k2="-1" k3="1"/>
<feColorMatrix type="matrix" values="0 0 0 0 0.9875 0 0 0 0 1 0 0 0 0 1 0 0 0 0.22 0"/>
<feBlend mode="normal" in2="shape" result="effect1_innerShadow_2233_160"/>
<feColorMatrix in="SourceAlpha" type="matrix" values="0 0 0 0 0 0 0 0 0 0 0 0 0 0 0 0 0 0 127 0" result="hardAlpha"/>
<feOffset dx="3" dy="-8"/>
<feGaussianBlur stdDeviation="10"/>
<feComposite in2="hardAlpha" operator="arithmetic" k2="-1" k3="1"/>
<feColorMatrix type="matrix" values="0 0 0 0 0.329412 0 0 0 0 0.329412 0 0 0 0 0.333333 0 0 0 1 0"/>
<feBlend mode="normal" in2="effect1_innerShadow_2233_160" result="effect2_innerShadow_2233_160"/>
</filter>
<filter id="filter2_f_2233_160" x="98.625" y="27.0161" width="171.426" height="152.818" filterUnits="userSpaceOnUse" color-interpolation-filters="sRGB">
<feFlood flood-opacity="0" result="BackgroundImageFix"/>
<feBlend mode="normal" in="SourceGraphic" in2="BackgroundImageFix" result="shape"/>
<feGaussianBlur stdDeviation="17.5" result="effect1_foregroundBlur_2233_160"/>
</filter>
<filter id="filter3_f_2233_160" x="87.5742" y="170.605" width="73.9336" height="73.629" filterUnits="userSpaceOnUse" color-interpolation-filters="sRGB">
<feFlood flood-opacity="0" result="BackgroundImageFix"/>
<feBlend mode="normal" in="SourceGraphic" in2="BackgroundImageFix" result="shape"/>
<feGaussianBlur stdDeviation="10.5" result="effect1_foregroundBlur_2233_160"/>
</filter>
<filter id="filter4_f_2233_160" x="105.633" y="188.585" width="37.8203" height="37.669" filterUnits="userSpaceOnUse" color-interpolation-filters="sRGB">
<feFlood flood-opacity="0" result="BackgroundImageFix"/>
<feBlend mode="normal" in="SourceGraphic" in2="BackgroundImageFix" result="shape"/>
<feGaussianBlur stdDeviation="5.5" result="effect1_foregroundBlur_2233_160"/>
</filter>
<filter id="filter5_f_2233_160" x="88.3633" y="68.8145" width="112.34" height="108.972" filterUnits="userSpaceOnUse" color-interpolation-filters="sRGB">
<feFlood flood-opacity="0" result="BackgroundImageFix"/>
<feBlend mode="normal" in="SourceGraphic" in2="BackgroundImageFix" result="shape"/>
<feGaussianBlur stdDeviation="17.5" result="effect1_foregroundBlur_2233_160"/>
</filter>
<filter id="filter6_f_2233_160" x="141.953" y="67.2695" width="84.0117" height="71.0464" filterUnits="userSpaceOnUse" color-interpolation-filters="sRGB">
<feFlood flood-opacity="0" result="BackgroundImageFix"/>
<feBlend mode="normal" in="SourceGraphic" in2="BackgroundImageFix" result="shape"/>
<feGaussianBlur stdDeviation="5.5" result="effect1_foregroundBlur_2233_160"/>
</filter>
<filter id="filter7_f_2233_160" x="128.793" y="72.6602" width="68.0469" height="55.5859" filterUnits="userSpaceOnUse" color-interpolation-filters="sRGB">
<feFlood flood-opacity="0" result="BackgroundImageFix"/>
<feBlend mode="normal" in="SourceGraphic" in2="BackgroundImageFix" result="shape"/>
<feGaussianBlur stdDeviation="5.5" result="effect1_foregroundBlur_2233_160"/>
</filter>
<radialGradient id="paint0_radial_2233_160" cx="0" cy="0" r="1" gradientUnits="userSpaceOnUse" gradientTransform="translate(136.95 141.852) rotate(82.4288) scale(178.673)">
<stop stop-color="#171717" stop-opacity="0"/>
<stop offset="0.630208" stop-color="#1FD1F9" stop-opacity="0.31"/>
<stop offset="1" stop-color="#1FD1F9"/>
</radialGradient>
<radialGradient id="paint1_radial_2233_160" cx="0" cy="0" r="1" gradientUnits="userSpaceOnUse" gradientTransform="translate(136.95 141.852) rotate(90) scale(169.615)">
<stop offset="0.319735" stop-color="#1FD1F9" stop-opacity="0"/>
<stop offset="1" stop-color="#1A3281"/>
</radialGradient>
</defs>
</svg>
