<svg width="75" height="75" viewBox="0 0 75 75" fill="none" xmlns="http://www.w3.org/2000/svg">
<g id="social">
<rect x="1" y="1" width="73" height="73" rx="36.5" stroke="url(#paint0_linear_2185_767)" stroke-width="2"/>
<path id="Vector" d="M15.9261 23.1406C15.3075 23.3374 14.9795 23.5436 14.6327 23.956C13.7518 24.9775 13.7892 26.5239 14.7546 29.523C16.7602 35.7085 20.6121 42.2221 24.7733 46.477C27.032 48.7732 29.0001 50.254 31.2869 51.3599C33.6674 52.5127 35.7386 53 38.2316 53C40.5184 53 41.8211 52.6439 42.5896 51.8191C43.2644 51.0881 43.2738 51.0412 43.3019 47.9016C43.3206 46.3646 43.3488 45.0806 43.3769 45.0619C43.4612 44.9775 44.1735 45.418 44.9795 46.0459C46.0479 46.8707 47.2569 48.0609 48.9533 49.926C50.584 51.7348 51.1744 52.269 51.9617 52.6532L52.5709 52.9531H56.226C59.8623 52.9531 59.8811 52.9531 60.3684 52.7282C60.9682 52.4564 61.6243 51.7816 61.8492 51.2006C61.9804 50.8538 62.0085 50.5633 61.9711 49.8604C61.9336 48.9981 61.9148 48.9419 61.3994 47.911C60.5278 46.1865 59.0189 44.2746 55.8605 40.9194C54.8764 39.8697 54.061 38.9606 54.0423 38.9044C54.0329 38.8482 54.2204 38.5295 54.464 38.1921C54.7077 37.8547 55.42 36.8051 56.0479 35.8491C58.3816 32.3065 60.1904 29.045 60.7902 27.3018C61.3338 25.7179 61.1651 24.5089 60.3028 23.731C60.1154 23.553 59.7124 23.3186 59.4125 23.2062C58.8877 23.0094 58.7658 23 55.3919 23.0281L51.9148 23.0562L51.2869 23.3655C50.4622 23.7685 49.9279 24.3683 49.4687 25.418C47.8661 29.0731 45.5043 33.0281 43.7705 34.9588L43.3488 35.4274L43.33 34.4902C43.3113 33.9747 43.3206 31.866 43.33 29.8041C43.3581 25.8772 43.3206 25.2493 42.9551 24.4152C42.7208 23.8997 42.3834 23.5248 41.8867 23.2624C41.5212 23.0562 41.4275 23.0562 36.7321 23.0281L31.9617 23L31.3713 23.2905C30.4153 23.7591 29.9373 24.5276 29.9373 25.5679C29.9373 26.3739 30.0873 26.7582 30.8558 27.911C31.8211 29.373 31.8117 29.298 31.7836 33.6748L31.7649 37.358L31.4556 37.0019C30.9589 36.4208 29.8155 34.6682 29.0845 33.3655C27.9786 31.3786 27.0601 29.3449 26.1041 26.7769C25.8042 25.9709 25.4481 25.0806 25.3075 24.8088C24.9889 24.1715 24.3984 23.5904 23.7986 23.2905L23.33 23.0562L19.8155 23.0375C17.1632 23.0187 16.2072 23.0469 15.9261 23.1406ZM22.4865 26.2052C22.5709 26.2896 22.8614 26.9644 23.1332 27.7048C23.8548 29.6729 24.5015 31.1818 25.4481 33.0843C27.8286 37.911 30.331 40.9475 32.1585 41.2474C32.674 41.3224 33.4706 41.1443 33.9017 40.8444C34.136 40.6851 34.3516 40.4039 34.5578 39.9822L34.8577 39.3636L34.8858 34.7245C34.9139 31.4724 34.8858 29.8791 34.8108 29.3824C34.6608 28.4358 34.2485 27.3486 33.7799 26.6457C33.5737 26.3365 33.4144 26.0553 33.4331 26.0366C33.4518 26.0178 34.9982 26.0366 36.8539 26.0647L40.2372 26.1303L40.2653 31.6692C40.3028 37.836 40.2841 37.6673 40.9589 38.4545C42.1304 39.8229 44.4734 39.0169 46.5259 36.5333C48.1566 34.5651 49.6468 32.1565 51.1838 29.0075C51.7742 27.7985 52.3272 26.6551 52.4115 26.477C52.5053 26.2896 52.6646 26.1303 52.8052 26.0928C52.9364 26.0553 54.1454 26.0272 55.4856 26.0178L57.9317 26.0084L57.8848 26.2427C57.8005 26.6926 56.6665 28.895 55.6074 30.657C55.0264 31.6317 53.7892 33.5623 52.8708 34.9494C50.9964 37.7516 50.7902 38.1828 50.8558 39.1293C50.9401 40.1978 51.1088 40.4508 53.6955 43.1593C56.7133 46.3271 59.2157 49.6448 58.7939 49.9166C58.5971 50.0384 53.9579 50.0197 53.5175 49.8978C53.0957 49.776 52.5334 49.2418 50.4622 46.9738C47.7911 44.0403 45.6637 42.4096 43.9673 41.9691C42.6927 41.6504 41.2963 42.044 40.7808 42.8782C40.3403 43.6092 40.2466 44.3308 40.2466 47.1612C40.2466 48.9888 40.2185 49.7291 40.1341 49.776C39.9467 49.8978 38.2785 49.9634 37.3038 49.8885C32.4865 49.5323 27.6037 45.9991 23.2832 39.7198C20.584 35.8022 17.6412 29.4667 17.1444 26.5052L17.0788 26.1115L17.6318 26.074C17.9317 26.0553 19.1126 26.0459 20.256 26.0459C22.0273 26.0553 22.3647 26.074 22.4865 26.2052Z" fill="white"/>
</g>
<defs>
<linearGradient id="paint0_linear_2185_767" x1="37.5" y1="0" x2="37.5" y2="75" gradientUnits="userSpaceOnUse">
<stop stop-color="#07463E"/>
<stop offset="1" stop-color="#1FD1F9"/>
</linearGradient>
</defs>
</svg>
