<svg width="75" height="75" viewBox="0 0 75 75" fill="none" xmlns="http://www.w3.org/2000/svg">
<g id="social">
<rect x="1" y="1" width="73" height="73" rx="36.5" stroke="url(#paint0_linear_2185_755)" stroke-width="2"/>
<g id="Black">
<path id="Vector" d="M27.0419 20.139C24.4303 20.6859 22.2698 22.2857 21.0324 24.5897C20.5606 25.458 20.253 26.3605 20.0684 27.4065C20.0273 27.6732 20 31.1736 20 37.5182C20 47.0488 20 47.2334 20.1436 47.9102C20.5196 49.7698 21.4016 51.3765 22.7347 52.6276C23.9654 53.783 25.3874 54.5146 27.0898 54.8564C27.7666 55 27.9512 55 37.5023 55C47.0534 55 47.238 55 47.9148 54.8564C49.7744 54.4804 51.3811 53.5984 52.6322 52.2653C53.7877 51.0346 54.5192 49.6126 54.861 47.9102C55.0046 47.2334 55.0046 47.0488 55.0046 37.5182C55.0046 31.1736 54.9773 27.6732 54.9362 27.4065C54.444 24.5692 52.7758 22.2516 50.294 20.9662C49.501 20.556 48.8446 20.3236 47.9148 20.139C47.238 19.9954 47.067 19.9954 37.4544 20.0022C27.9786 20.0022 27.6709 20.0091 27.0419 20.139ZM47.655 23.1267C49.8018 23.7283 51.3127 25.2529 51.8733 27.3792L52.0306 27.9603V37.4977V47.0351L51.8733 47.6162C51.3059 49.7561 49.7608 51.3013 47.6208 51.8687L47.0397 52.026H37.5023H27.9649L27.3838 51.8687C25.2439 51.3013 23.6987 49.7561 23.1313 47.6162L22.974 47.0351V37.4977V27.9603L23.1313 27.3792C23.7398 25.0752 25.4831 23.4617 27.8145 23.0378C28.211 22.9626 30.2074 22.9489 37.7074 22.9557L47.1081 22.9694L47.655 23.1267Z" fill="white"/>
<path id="Vector_2" d="M46.1794 25.9642C45.9606 26.053 45.7144 26.1898 45.6187 26.265C44.5453 27.1059 44.4907 28.7468 45.5025 29.6629C45.8512 29.9774 46.07 30.0868 46.5691 30.1825C47.5672 30.3808 48.5449 29.8817 48.9825 28.9587C49.2354 28.4186 49.2354 27.5708 48.9961 27.0717C48.7774 26.641 48.3603 26.224 47.9296 26.012C47.4305 25.7659 46.6921 25.7454 46.1794 25.9642Z" fill="white"/>
<path id="Vector_3" d="M35.9519 28.849C34.7007 29.0815 33.2582 29.7036 32.26 30.4489C31.59 30.9479 30.6602 31.9119 30.2431 32.5409C29.5526 33.587 29.0603 34.8108 28.8552 35.973C28.7253 36.7524 28.7253 38.2428 28.8552 39.0222C29.1561 40.7178 29.956 42.3039 31.1456 43.5414C32.4583 44.9088 34.1538 45.8249 35.9792 46.1462C36.7586 46.2761 38.2491 46.2761 39.0285 46.1462C42.6315 45.5104 45.5166 42.6253 46.1524 39.0222C46.2823 38.2428 46.2823 36.7524 46.1524 35.973C45.9473 34.8039 45.4551 33.587 44.7577 32.5409C44.3475 31.9119 43.4109 30.9411 42.7614 30.4557C41.729 29.69 40.3001 29.0746 39.0285 28.849C38.2969 28.726 36.6492 28.726 35.9519 28.849ZM38.9054 31.8914C40.977 32.4247 42.5563 33.9972 43.1169 36.0961C43.2331 36.52 43.2673 36.8413 43.2673 37.4976C43.2673 38.154 43.2331 38.4753 43.1169 38.8992C42.5563 40.9981 41.0043 42.5432 38.9054 43.1107C38.1328 43.3226 36.8748 43.3226 36.1023 43.1107C34.0034 42.5432 32.4514 40.9981 31.8908 38.8992C31.6857 38.1335 31.6857 36.8618 31.8908 36.0961C32.7249 32.9716 35.8425 31.1052 38.9054 31.8914Z" fill="white"/>
</g>
</g>
<defs>
<linearGradient id="paint0_linear_2185_755" x1="37.5" y1="0" x2="37.5" y2="75" gradientUnits="userSpaceOnUse">
<stop stop-color="#07463E"/>
<stop offset="1" stop-color="#1FD1F9"/>
</linearGradient>
</defs>
</svg>
