<svg width="75" height="75" viewBox="0 0 75 75" fill="none" xmlns="http://www.w3.org/2000/svg">
<g id="social">
<rect x="1" y="1" width="73" height="73" rx="36.5" stroke="url(#paint0_linear_2185_749)" stroke-width="2"/>
<g id="Black">
<path id="Vector" d="M35.7656 20.0208C32.5086 20.3698 29.5253 21.5467 26.8636 23.5378C25.9946 24.1879 24.2087 25.9737 23.5586 26.8427C21.7796 29.2171 20.6848 31.7556 20.1922 34.6431C20.0074 35.7106 19.939 38.1738 20.0622 39.2892C20.3769 42.2177 21.3349 44.8658 22.936 47.2401L23.2918 47.767L22.1902 51.024C21.588 52.8167 21.1022 54.2878 21.109 54.2947C21.1159 54.3083 22.6007 53.8431 24.4071 53.2614C26.2135 52.6798 27.7531 52.2009 27.8215 52.2009C27.8899 52.2009 28.1089 52.2967 28.3005 52.4198C30.4901 53.7883 33.0218 54.6505 35.7108 54.9378C36.8262 55.061 39.2894 54.9926 40.3569 54.8078C43.2444 54.3152 45.7898 53.2204 48.1573 51.4414C49.0263 50.7913 50.8121 49.0054 51.4622 48.1364C53.2686 45.7211 54.3702 43.1278 54.8697 40.1239C55.0476 39.0428 55.0476 35.9364 54.8697 34.8552C54.3702 31.8514 53.2686 29.2581 51.4622 26.8427C50.8121 25.9737 49.0263 24.1879 48.1573 23.5378C45.7898 21.7656 43.2581 20.6708 40.3569 20.1713C39.6932 20.055 39.18 20.0208 37.7841 20.0071C36.8262 19.9934 35.9161 20.0003 35.7656 20.0208ZM32.0022 28.1428C32.1801 28.2181 32.2828 28.3412 32.4402 28.656C32.837 29.436 34.2945 33.0215 34.2945 33.2131C34.2945 33.5347 34.0276 33.9589 33.3639 34.7184C33.0149 35.1084 32.6933 35.4984 32.6523 35.5669C32.4675 35.9158 32.6454 36.3811 33.3297 37.3527C34.8282 39.4807 36.5388 40.9724 38.6942 42.0056C40.4048 42.8335 40.6169 42.7788 41.7185 41.2529C42.5122 40.1513 42.827 39.8913 43.2854 39.9939C43.7507 40.0966 47.7399 42.0398 47.9109 42.2519C48.1573 42.5462 47.9383 44.161 47.5414 44.9342C46.9735 46.0563 45.215 47.0896 43.6139 47.2401C41.9512 47.4043 37.9894 46.0221 35.6424 44.462C33.2681 42.8814 30.8253 40.295 28.9231 37.3596C27.9652 35.8816 27.3836 34.171 27.3836 32.8367C27.3836 31.3998 27.8283 30.1818 28.7521 29.0939C29.1763 28.5807 29.5732 28.3002 30.0727 28.1496C30.4695 28.0196 31.7012 28.0196 32.0022 28.1428Z" fill="white"/>
</g>
</g>
<defs>
<linearGradient id="paint0_linear_2185_749" x1="37.5" y1="0" x2="37.5" y2="75" gradientUnits="userSpaceOnUse">
<stop stop-color="#07463E"/>
<stop offset="1" stop-color="#1FD1F9"/>
</linearGradient>
</defs>
</svg>
