<svg width="75" height="75" viewBox="0 0 75 75" fill="none" xmlns="http://www.w3.org/2000/svg">
<g id="social">
<rect x="1" y="1" width="73" height="73" rx="36.5" stroke="url(#paint0_linear_2185_649)" stroke-width="2"/>
<g id="Group 14">
<g id="LightGray">
<path id="Vector" d="M50.9918 23.087C50.6724 23.16 50.2342 23.3243 46.1177 24.949C45.068 25.3689 43.6441 25.9257 42.9687 26.1812C42.2933 26.4459 40.8785 27.0027 39.8197 27.4226C35.6119 29.0747 33.8868 29.7501 31.9243 30.5168C30.7925 30.9549 29.6972 31.3931 29.4873 31.4843C29.2682 31.5847 29.0765 31.6578 29.0492 31.6578C29.0035 31.6578 28.1364 31.9955 25.033 33.2186C20.095 35.1536 18.8445 35.6739 18.5525 35.8656C18.16 36.1394 17.9409 36.5684 18.0139 36.9335C18.0687 37.2073 18.4612 37.682 18.8354 37.9284C18.9449 37.9923 20.8526 38.6586 23.0706 39.4071L27.1141 40.758L28.538 39.8452C29.323 39.3432 30.2723 38.7316 30.6465 38.4852C31.0207 38.2479 31.4771 37.9649 31.6505 37.8645C31.8239 37.7641 32.3716 37.4173 32.8554 37.1069C33.3482 36.7966 34.9091 35.8017 36.3238 34.8981C41.1432 31.8403 41.7912 31.4296 42.3115 31.0919C42.5945 30.9002 42.9778 30.6629 43.1512 30.5625C43.3247 30.4621 43.7445 30.1974 44.0731 29.9874C45.9078 28.81 46.0903 28.7096 46.4189 28.7004C46.7201 28.6913 46.7566 28.7187 46.784 28.9195C46.8205 29.2025 46.5102 29.5128 43.2973 32.388C42.8592 32.7805 43.1056 32.5614 40.8237 34.6242C39.774 35.5826 38.3319 36.8696 37.6291 37.4994C36.9262 38.1201 35.8948 39.0511 35.338 39.5531C34.7813 40.0551 33.7499 40.977 33.047 41.6068C32.3351 42.2366 31.7509 42.8117 31.7509 42.8847C31.7509 42.9942 35.5206 46.0154 36.4881 46.6726C36.7072 46.8187 39.5459 48.991 40.0479 49.3926C41.7273 50.7344 44.4291 52.7333 44.7212 52.852C45.3784 53.1075 45.9899 53.0345 46.5558 52.6147C47.0852 52.2313 47.213 51.8479 47.8063 48.8176C48.1166 47.2385 48.5274 45.1392 48.7282 44.1625C48.929 43.1859 49.1937 41.8441 49.3215 41.1961C49.5771 39.8361 50.9736 32.7896 51.6581 29.4215C51.9137 28.1619 52.1602 26.9297 52.2058 26.6832C52.2514 26.4277 52.3883 25.6975 52.5161 25.0494C52.6987 24.091 52.7261 23.8263 52.6439 23.5707C52.4705 23.0505 51.8772 22.8771 50.9918 23.087Z" fill="white"/>
</g>
</g>
</g>
<defs>
<linearGradient id="paint0_linear_2185_649" x1="37.5" y1="0" x2="37.5" y2="75" gradientUnits="userSpaceOnUse">
<stop stop-color="#07463E"/>
<stop offset="1" stop-color="#1FD1F9"/>
</linearGradient>
</defs>
</svg>
