<svg width="75" height="75" viewBox="0 0 75 75" fill="none" xmlns="http://www.w3.org/2000/svg">
<g id="social">
<rect x="1" y="1" width="73" height="73" rx="36.5" stroke="url(#paint0_linear_2185_761)" stroke-width="2"/>
<g id="Black">
<path id="Vector" d="M23.278 20.1025C21.9667 20.4022 20.9178 21.1889 20.4214 22.2566C19.26 24.7386 20.5993 27.5203 23.2124 28.0729C25.4883 28.5599 27.6331 27.6608 28.5135 25.8813C28.8039 25.2912 28.8132 25.2163 28.8132 24.1392C28.8132 23.2026 28.7758 22.931 28.5978 22.5002C28.1951 21.498 27.3241 20.6644 26.2563 20.2804C25.4696 19.9901 24.1209 19.9152 23.278 20.1025Z" fill="white"/>
<path id="Vector_2" d="M46.6551 30.8359C44.2856 31.0326 42.3656 32.091 40.97 33.9642L40.5673 34.5074V32.9058V31.3042H36.6149H32.6531L32.6437 43.1521L32.625 55H36.5961H40.5673V47.9756C40.5673 43.1989 40.6048 40.8013 40.6703 40.4641C40.7265 40.1925 40.9045 39.7148 41.0637 39.4151C41.9347 37.7667 43.5738 36.8957 45.3907 37.1205C46.2243 37.2329 46.8987 37.5607 47.4325 38.132C47.9383 38.6658 48.1724 39.106 48.4534 40.0239C48.6595 40.7076 48.6595 40.7732 48.6969 47.8632L48.725 55H52.7055H56.686L56.6486 47.2919C56.6111 38.9375 56.6111 38.9749 56.0679 37.0643C54.841 32.7934 51.31 30.4519 46.6551 30.8359Z" fill="white"/>
<path id="Vector_3" d="M20.4297 43.1521V55H24.4102H28.3907V43.1521V31.3042H24.4102H20.4297V43.1521Z" fill="white"/>
</g>
</g>
<defs>
<linearGradient id="paint0_linear_2185_761" x1="37.5" y1="0" x2="37.5" y2="75" gradientUnits="userSpaceOnUse">
<stop stop-color="#07463E"/>
<stop offset="1" stop-color="#1FD1F9"/>
</linearGradient>
</defs>
</svg>
