<svg width="79" height="70" viewBox="0 0 79 70" fill="none" xmlns="http://www.w3.org/2000/svg">
<g id="Teal">
<path id="Vector" d="M53.7943 0.056572C51.024 0.498962 48.0537 1.81561 44.7989 4.03811C43.5034 4.9229 41.0702 6.85047 39.9748 7.85112L39.269 8.50418L38.2368 7.60886C33.8128 3.76425 29.7892 1.38375 26.0815 0.404167C25.144 0.151367 24.7859 0.119774 23.4166 0.109238C22.1632 0.109238 21.6997 0.151367 21.152 0.309364C17.8867 1.26788 15.9591 4.22771 15.3587 9.22043C15.2113 10.4844 15.2007 13.8656 15.3587 15.3823C15.5167 17.0571 15.759 18.6476 16.0961 20.3119C16.2962 21.3336 16.3488 21.7865 16.2646 21.8181C16.2014 21.8392 15.5799 22.0498 14.8847 22.2921C9.49175 24.1354 5.58395 26.3263 2.92959 29.0123C0.759756 31.2032 -0.114497 33.0886 0.0119013 35.3427C0.233098 39.2294 3.84598 42.916 10.3555 45.918C11.8617 46.6027 14.7057 47.7086 15.8222 48.0246C16.4331 48.2037 16.4331 48.2142 16.3804 48.5408C16.3488 48.7304 16.1803 49.6362 16.0013 50.5631C14.8426 56.8304 15.1059 62.2444 16.728 65.6572C18.8873 70.197 23.1849 71.1976 29.1888 68.5643C31.9274 67.3741 35.8141 64.7197 38.637 62.1075C39.2901 61.5071 39.3322 61.486 39.5324 61.6546C39.6482 61.7494 40.1222 62.1707 40.5857 62.5815C44.4619 66.0048 48.8963 68.6381 52.2775 69.5228C55.6481 70.3971 58.4078 69.8915 60.2406 68.0693C61.0516 67.2582 61.3992 66.7526 61.968 65.5413C63.6323 62.0338 63.8218 55.9772 62.4841 49.6678C62.3472 49.0042 62.2313 48.4038 62.2313 48.3406C62.2313 48.2669 62.8107 48.0246 63.5269 47.7718C69.752 45.6441 74.492 42.7896 76.7776 39.7772C77.4412 38.9029 78.1891 37.3861 78.3892 36.5013C79.2424 32.8885 77.0094 29.3072 71.8692 26.0314C69.9522 24.799 66.0338 23.04 63.1793 22.1236C62.6843 21.9656 62.2419 21.797 62.1997 21.7549C62.1576 21.7128 62.2313 21.0913 62.3788 20.3751C63.885 12.907 63.4427 6.6398 61.1886 3.18492C60.209 1.69975 58.6395 0.562164 57.049 0.17244C56.3644 0.0144424 54.5105 -0.0592957 53.7943 0.056572ZM56.733 3.95384C59.2189 5.01769 60.209 10.3159 59.2189 17.2256C59.0503 18.3948 58.8081 19.7641 58.6395 20.4067C58.5447 20.7753 58.5342 20.7859 58.1971 20.6911C56.7857 20.2803 49.9286 19.1216 48.9174 19.1216C48.5698 19.1216 48.4961 19.0479 47.7272 18.0367C46.0313 15.7931 43.9984 13.3494 42.4922 11.7695C41.7654 11.0005 41.6601 11.2323 43.2716 9.85242C44.5567 8.7359 46.7792 7.07166 47.9694 6.31327C49.8759 5.1125 52.4144 4.01704 53.9523 3.74318C54.8265 3.58518 56.101 3.67999 56.733 3.95384ZM25.7339 4.10131C26.9558 4.45943 29.7576 5.83928 31.1058 6.75567C33.1282 8.11445 36.5304 10.8425 36.5304 11.1059C36.5304 11.1585 36.1828 11.5693 35.772 12.0223C35.3507 12.4857 34.7398 13.1704 34.4238 13.539C34.1078 13.9182 33.8234 14.2448 33.7918 14.2764C33.6232 14.4238 31.8115 16.699 30.9794 17.805L30.0314 19.0689L28.4093 19.2585C26.3132 19.5008 23.5009 19.9853 21.5733 20.4277C20.7306 20.6173 20.0144 20.7543 19.9723 20.7121C19.8669 20.6173 19.3929 18.0894 19.1401 16.225C18.8452 14.0446 18.8241 10.7899 19.0875 9.06244C19.5509 6.08155 20.6358 4.22771 22.1421 3.83798C22.8057 3.66945 24.7227 3.80638 25.7339 4.10131ZM39.88 14.4028C40.8279 15.3929 43.377 18.3632 43.4612 18.5739C43.4718 18.616 41.5653 18.6476 39.2269 18.6476H34.9715L35.3086 18.2263C36.3724 16.8675 39.09 13.7497 39.2164 13.7497C39.2374 13.7497 39.5324 14.0446 39.88 14.4028ZM43.5876 22.3869C44.5988 22.4396 45.6732 22.5133 45.9576 22.5449L46.4842 22.6081L47.1689 23.6298C49.3387 26.8951 50.9924 29.718 52.7094 33.1518L53.6152 34.953L53.3729 35.4902C52.0458 38.4184 49.3914 43.1056 47.2321 46.3077L46.4842 47.4348L45.9049 47.4874C45.5889 47.519 43.9774 47.6033 42.3342 47.677C39.9432 47.7824 38.7108 47.7824 36.1723 47.677C31.7799 47.498 32.2329 47.6138 31.4429 46.4657C29.7049 43.9588 27.5561 40.3038 25.9551 37.1228L24.9123 35.0794L25.6812 33.4994C27.1138 30.5501 29.3046 26.7266 31.1585 23.9458L32.0538 22.6081L32.6963 22.5449C34.9083 22.3026 40.5751 22.2184 43.5876 22.3869ZM27.0927 23.4086C26.4818 24.3355 24.8491 27.1163 24.0065 28.6857C23.4587 29.6864 23.0058 30.4869 22.9847 30.4658C22.8373 30.3184 20.9624 24.9254 20.8992 24.4514C20.8886 24.3355 22.5634 23.9458 25.0387 23.4929C27.4929 23.0505 27.3244 23.061 27.0927 23.4086ZM52.2775 23.2927C54.0997 23.5666 57.3861 24.2513 57.523 24.3777C57.5651 24.4198 57.4387 24.9991 57.2281 25.6627C56.6804 27.485 55.5638 30.508 55.4901 30.4237C55.448 30.371 55.1004 29.739 54.7107 28.9912C53.9523 27.5376 53.2676 26.3474 52.3302 24.8622C52.0036 24.3355 51.6244 23.7351 51.4875 23.5034L51.2452 23.1032L51.5507 23.1664C51.7192 23.1979 52.0458 23.2506 52.2775 23.2927ZM17.36 25.4836C17.36 25.9787 19.5825 32.1195 20.4884 34.1208C20.9202 35.0899 20.9729 34.7528 19.9933 37.1333C19.3087 38.7765 18.1079 42.1261 17.7182 43.4532C17.5602 44.001 17.3916 44.496 17.3495 44.5487C17.181 44.7488 13.4628 43.3584 11.1981 42.2419C8.28044 40.8094 6.06847 39.2189 4.79396 37.6284C3.76171 36.3433 3.43518 35.1426 3.81438 33.9944C4.6781 31.3928 9.14416 28.2749 15.0427 26.1262C17.5391 25.2203 17.36 25.273 17.36 25.4836ZM62.9371 25.926C67.6665 27.6008 70.9001 29.4336 73.091 31.6561C74.5025 33.0886 75.0818 34.3315 74.8606 35.4796C74.4077 37.9023 70.6263 40.9569 65.4124 43.1267C64.0536 43.6955 61.2939 44.6646 61.2518 44.6014C61.2307 44.5803 60.8726 43.5164 60.4618 42.2419C59.756 40.1142 58.6817 37.2703 57.9759 35.7114C57.8179 35.3638 57.7126 34.9846 57.7337 34.8687C57.7653 34.7528 58.0602 34.0155 58.3867 33.2361C59.3453 30.9504 60.1984 28.6015 60.9252 26.1999C61.0727 25.7259 61.2096 25.3362 61.2412 25.3362C61.2623 25.3362 62.0312 25.5995 62.9371 25.926ZM56.9226 43.2952C57.2492 44.2748 57.5441 45.2123 57.5967 45.3597C57.6705 45.6125 57.6494 45.6547 57.4072 45.7073C53.7627 46.4868 51.5191 46.8871 51.4138 46.7817C51.3822 46.7607 51.6876 46.1919 52.0879 45.5388C53.0569 43.9694 53.868 42.5685 54.4895 41.3993C54.7633 40.8726 55.1109 40.2196 55.2584 39.9457L55.5322 39.4401L55.9325 40.4724C56.1537 41.0411 56.6066 42.3051 56.9226 43.2952ZM23.6378 40.683C24.2909 41.9154 26.071 44.97 26.8083 46.1076C27.1769 46.6869 27.2296 46.8239 27.0716 46.8239C26.5344 46.8239 21.0993 45.7495 20.9624 45.6231C20.8676 45.5283 22.8794 39.556 23.0058 39.556C23.0269 39.556 23.3113 40.0616 23.6378 40.683ZM58.9134 50.6685C59.5454 53.86 59.8087 57.3149 59.6086 59.6217C59.2821 63.1292 58.3657 65.278 56.87 65.9837C56.3644 66.2154 56.1432 66.2576 55.2794 66.2576C53.5625 66.247 51.6666 65.6361 49.2966 64.3405C47.3269 63.2556 44.3355 61.0752 42.5027 59.4005L41.9445 58.8843L42.9662 57.7573C44.4829 56.0825 45.926 54.3445 47.2742 52.5644C47.9273 51.6902 48.475 50.9739 48.475 50.9634C48.4856 50.9529 49.265 50.8475 50.2235 50.7211C52.8884 50.3841 56.4276 49.7521 58.0707 49.3202C58.3657 49.236 58.6079 49.2044 58.6185 49.236C58.629 49.2676 58.7659 49.9101 58.9134 50.6685ZM22.7846 49.8153C24.7965 50.2261 27.5561 50.6685 29.4837 50.8791L30.063 50.9529L31.1164 52.3327C32.3593 53.9759 34.35 56.3774 35.6772 57.831C36.2039 58.4103 36.6357 58.9054 36.6252 58.937C36.6252 58.9686 36.088 59.4531 35.4455 60.0114C30.379 64.3932 25.5864 66.7526 22.6793 66.2892C21.4574 66.0996 20.7412 65.5097 20.0881 64.1509C18.7188 61.307 18.5713 56.3458 19.6879 50.6685C19.9828 49.2044 19.9723 49.2149 20.2356 49.2886C20.362 49.3202 21.5101 49.5625 22.7846 49.8153ZM43.4086 51.4901C43.1768 51.9114 41.3125 54.1444 40.3645 55.1451C40.0695 55.4611 39.7114 55.8613 39.564 56.0298L39.3112 56.3248L38.4264 55.3452C37.9313 54.808 37.4784 54.3235 37.4257 54.2603C37.2783 54.1023 35.3402 51.7639 35.1822 51.5532C35.0663 51.3953 35.4034 51.3847 39.269 51.3742C42.4184 51.3742 43.4612 51.4058 43.4086 51.4901Z" fill="url(#paint0_linear_2225_21)"/>
<path id="Vector_2" d="M37.901 27.7588C34.3513 28.3802 31.7286 31.7193 31.9287 35.3427C32.1183 38.6079 34.3513 41.3466 37.4797 42.1576C38.375 42.3894 40.1446 42.3894 41.061 42.1576C42.3355 41.8311 43.4415 41.1886 44.4316 40.1879C45.4322 39.1978 45.9273 38.3657 46.3381 37.028C46.6541 36.0063 46.6751 34.1735 46.3907 33.1307C45.3796 29.423 41.7035 27.0952 37.901 27.7588Z" fill="url(#paint1_linear_2225_21)"/>
</g>
<defs>
<linearGradient id="paint0_linear_2225_21" x1="42" y1="98" x2="40" y2="18" gradientUnits="userSpaceOnUse">
<stop stop-color="#1FD1F9"/>
<stop offset="1" stop-color="#07463E"/>
</linearGradient>
<linearGradient id="paint1_linear_2225_21" x1="39.7615" y1="48.2056" x2="39.2903" y2="31.4251" gradientUnits="userSpaceOnUse">
<stop stop-color="#1FD1F9"/>
<stop offset="1" stop-color="#07463E"/>
</linearGradient>
</defs>
</svg>
