<svg width="40" height="40" viewBox="0 0 40 40" fill="none" xmlns="http://www.w3.org/2000/svg">
<rect x="0.5" y="0.5" width="39" height="39" rx="19.5" stroke="white"/>
<path d="M29.9945 10.058C29.7816 10.1067 29.4895 10.2162 26.7451 11.2993C26.0454 11.5793 25.0961 11.9504 24.6458 12.1208C24.1955 12.2973 23.2523 12.6685 22.5465 12.9484C19.7413 14.0498 18.5912 14.5001 17.2829 15.0112C16.5283 15.3033 15.7981 15.5954 15.6582 15.6562C15.5121 15.7232 15.3844 15.7718 15.3661 15.7718C15.3357 15.7718 14.7576 15.997 12.6887 16.8124C9.39668 18.1024 8.56303 18.4493 8.36831 18.5771C8.10665 18.7596 7.96061 19.0456 8.00929 19.289C8.0458 19.4716 8.30746 19.788 8.55694 19.9523C8.62996 19.9949 9.90174 20.4391 11.3804 20.938L14.0761 21.8386L15.0253 21.2301C15.5487 20.8955 16.1815 20.4878 16.431 20.3235C16.6805 20.1652 16.9847 19.9766 17.1003 19.9097C17.216 19.8427 17.5811 19.6115 17.9036 19.4046C18.2322 19.1977 19.2727 18.5345 20.2159 17.932C23.4288 15.8935 23.8608 15.6197 24.2077 15.3946C24.3963 15.2668 24.6519 15.1086 24.7675 15.0416C24.8831 14.9747 25.163 14.7982 25.3821 14.6583C26.6052 13.8733 26.7269 13.8064 26.9459 13.8003C27.1467 13.7942 27.1711 13.8125 27.1893 13.9463C27.2137 14.135 27.0068 14.3419 24.8649 16.2587C24.5728 16.5203 24.7371 16.3743 23.2158 17.7495C22.516 18.3884 21.5546 19.2464 21.086 19.6663C20.6175 20.0801 19.9299 20.7007 19.5587 21.0354C19.1875 21.3701 18.4999 21.9847 18.0314 22.4045C17.5567 22.8244 17.1673 23.2078 17.1673 23.2564C17.1673 23.3295 19.6804 25.3436 20.3254 25.7817C20.4715 25.8791 22.3639 27.3273 22.6986 27.5951C23.8182 28.4896 25.6194 29.8222 25.8141 29.9013C26.2522 30.0717 26.6599 30.023 27.0372 29.7431C27.3902 29.4875 27.4753 29.232 27.8709 27.2117C28.0778 26.159 28.3516 24.7595 28.4855 24.1084C28.6193 23.4573 28.7958 22.5628 28.881 22.1307C29.0514 21.224 29.9824 16.5264 30.4388 14.281C30.6091 13.4413 30.7734 12.6198 30.8039 12.4555C30.8343 12.2851 30.9256 11.7983 31.0107 11.3663C31.1325 10.7273 31.1507 10.5509 31.0959 10.3805C30.9803 10.0337 30.5848 9.91804 29.9945 10.058Z" fill="url(#paint0_linear_2799_17)"/>
<defs>
<linearGradient id="paint0_linear_2799_17" x1="19.5627" y1="30" x2="19.5627" y2="10" gradientUnits="userSpaceOnUse">
<stop stop-color="#1FD1F9"/>
<stop offset="1" stop-color="#1A3281"/>
</linearGradient>
</defs>
</svg>
