    <svg width="81.753" height="72" viewBox="0 0 83 72" fill="none" xmlns="http://www.w3.org/2000/svg">
<g id="warranty">
<path id="Vector" d="M36.1898 0.488213C23.1401 2.79833 12.6037 13.024 9.12373 26.7488C8.31819 30.0442 7.96375 37.586 8.51152 40.9493C9.05928 44.3125 10.2837 48.3552 11.6048 51.073C12.217 52.398 12.7325 53.553 12.7325 53.7229C12.7325 53.8588 11.7659 53.9947 10.6059 53.9947C7.99597 53.9947 7.35154 54.3344 7.06155 55.8631L6.86822 57.0522H4.0005C0.488347 57.0522 0.359461 57.222 1.51944 60.5853L2.32498 62.9973L1.58388 65.0357C0.713898 67.4477 0.617233 68.4669 1.32611 68.7387C1.6161 68.8406 2.96941 68.9425 4.38716 68.9425C6.64267 68.9425 6.93266 69.0104 6.93266 69.588C6.93266 69.9277 7.22265 70.6071 7.60931 71.1167L8.25374 72H41.6031H74.9524L75.7257 71.1507C76.1768 70.7091 76.5312 70.0296 76.5312 69.6219C76.5312 69.0104 76.7246 68.9425 79.0768 68.9425C80.4945 68.9425 81.8478 68.8406 82.1378 68.7387C82.8467 68.4669 82.75 67.4477 81.88 65.0357L81.1389 62.9973L81.9445 60.5853C83.1044 57.222 82.9756 57.0522 79.4634 57.0522H76.5957L76.4024 55.8631C76.1124 54.3344 75.4679 53.9947 72.858 53.9947C71.698 53.9947 70.7314 53.8588 70.7314 53.6889C70.7314 53.4851 71.2147 52.296 71.8269 51.0391C74.4368 45.5355 75.3713 40.7794 75.1457 34.1548C74.9202 26.8847 73.3413 21.619 69.6681 15.8777C62.2893 4.1912 49.1751 -1.82191 36.1898 0.488213ZM49.1429 3.71558C59.1316 6.29749 67.6059 14.4848 70.9247 24.6765C72.3747 29.1609 72.7935 32.2524 72.568 37.1783C72.3424 42.1723 71.3758 46.0112 69.1847 50.4276L67.6381 53.4851L65.157 53.587L62.6437 53.6889L63.9004 51.7185C74.598 35.0381 66.7681 12.8881 48.3374 7.75829C46.3719 7.21474 44.8252 7.04488 41.732 7.04488C38.6387 7.04488 37.092 7.21474 35.1265 7.75829C16.6958 12.8881 8.86595 35.0381 19.5313 51.6845L20.7879 53.6549H18.4035C15.6969 53.6549 15.7936 53.7569 13.7314 49.3744C11.2826 44.1766 10.2193 36.4989 11.0892 30.5537C13.1192 16.727 23.2368 5.85584 36.4798 3.206C39.7987 2.56052 45.5019 2.76436 49.1429 3.71558ZM47.2096 10.5101C56.3605 12.8202 63.4171 20.362 65.4148 29.9762C66.2848 34.1208 65.9948 39.6923 64.7059 43.5651C63.546 46.9964 62.1282 49.6802 60.1627 51.9903L58.7449 53.6549H41.6031H24.429L22.9468 51.6845C16.4702 43.3273 15.6647 31.5389 20.8524 22.2305C22.4635 19.3768 26.3945 15.1982 28.9078 13.6015C34.6754 10.0684 41.0553 8.9813 47.2096 10.5101ZM73.9535 62.9973V69.2822H41.732H9.51039V62.9973V56.7124H41.732H73.9535V62.9973ZM6.86822 62.8954L6.96488 66.2247H5.48269C3.87161 66.2247 3.80717 66.1228 4.54826 64.2203C4.99937 63.0313 4.99937 62.7935 4.54826 61.6384C3.74273 59.6341 3.83939 59.3623 5.41825 59.4982L6.77155 59.6001L6.86822 62.8954ZM79.4312 59.9398C79.4312 60.0078 79.2056 60.7212 78.9156 61.4686C78.4323 62.6916 78.4323 62.9634 78.9156 64.4242C79.2056 65.2735 79.4312 66.0548 79.4312 66.1228C79.4312 66.1907 78.7868 66.2247 77.9812 66.2247H76.5312V62.9973V59.77H77.9812C78.7868 59.77 79.4312 59.8379 79.4312 59.9398Z" fill="url(#paint0_linear_2029_1259)" fill-opacity="0.6"/>
<path id="Vector_2" d="M43.0858 12.6164C42.5702 13.1599 42.6024 14.0772 43.118 14.4849C43.698 14.9944 46.0502 15.2322 46.6624 14.8586C47.5323 14.349 47.339 12.9221 46.3724 12.5484C45.2446 12.0728 43.5369 12.1408 43.0858 12.6164Z" fill="url(#paint1_linear_2029_1259)" fill-opacity="0.6"/>
<path id="Vector_3" d="M49.4601 14.9267C49.009 15.81 49.1378 16.0478 51.3289 17.6105C52.3278 18.324 53.6811 19.479 54.2611 20.1585C55.5177 21.5174 56.6777 21.7552 57.1932 20.702C57.6443 19.7848 57.2577 19.0714 55.3566 17.4067C51.7478 14.2473 50.1367 13.5678 49.4601 14.9267Z" fill="url(#paint2_linear_2029_1259)" fill-opacity="0.6"/>
<path id="Vector_4" d="M39.2834 18.1199C38.9612 19.0032 39.3156 19.8525 40.0567 19.9545C40.7656 20.0564 40.7656 20.1243 40.7656 26.0015C40.7656 29.4667 40.8945 32.2185 41.0878 32.6261C41.4745 33.3396 42.3767 33.4754 42.9566 32.8639C43.5044 32.2864 43.5044 18.6295 42.9566 18.052C42.3767 17.4405 39.5089 17.5084 39.2834 18.1199Z" fill="url(#paint3_linear_2029_1259)" fill-opacity="0.6"/>
<path id="Vector_5" d="M30.7124 22.5364C30.2935 23.4537 29.9391 23.6915 28.8758 23.8953C28.1347 23.9972 27.5547 24.235 27.5547 24.3709C27.5547 24.5408 27.9413 25.0164 28.3924 25.492C29.0691 26.1714 29.198 26.5451 29.0691 27.5643C28.9724 28.2438 28.9724 28.8892 29.0691 28.9912C29.1658 29.0591 29.7135 28.9232 30.2935 28.6175C31.1957 28.1758 31.5502 28.1418 32.3557 28.5155C33.709 29.0931 33.8379 29.0251 33.709 27.5303C33.6446 26.4772 33.8057 26.0356 34.5145 25.2882C35.3845 24.3709 35.3845 24.303 34.8045 24.0652C34.4501 23.9293 33.8379 23.7934 33.419 23.7934C32.9357 23.7594 32.549 23.3857 32.1624 22.5704C31.8724 21.9249 31.5179 21.3813 31.4213 21.3813C31.3246 21.3813 30.9702 21.8909 30.7124 22.5364Z" fill="url(#paint4_linear_2029_1259)" fill-opacity="0.6"/>
<path id="Vector_6" d="M51.3003 22.5704C50.9136 23.3857 50.527 23.7594 50.0436 23.7934C49.6248 23.7934 49.0126 23.9293 48.6581 24.0652C48.0781 24.303 48.0781 24.3709 48.9481 25.2202C49.6892 25.9336 49.8181 26.3413 49.7537 27.4624C49.6248 29.0251 49.7537 29.0931 51.107 28.5155C51.9125 28.1418 52.2669 28.1758 53.1691 28.6175C53.7491 28.9232 54.2969 29.0591 54.3936 28.9912C54.4902 28.8892 54.4902 28.2438 54.3936 27.5643C54.2647 26.5451 54.3936 26.1714 55.0702 25.492C55.5213 25.0164 55.908 24.5408 55.908 24.3709C55.908 24.235 55.328 23.9972 54.5869 23.8953C53.5236 23.6915 53.1691 23.4537 52.7503 22.5364C52.4925 21.8909 52.1381 21.3813 52.0414 21.3813C51.9447 21.3813 51.5903 21.9249 51.3003 22.5704Z" fill="url(#paint5_linear_2029_1259)" fill-opacity="0.6"/>
<path id="Vector_7" d="M23.6558 37.2123C23.2691 37.6879 23.398 38.1295 24.5902 40.5416C25.6213 42.6478 25.9758 43.735 26.0402 45.1618C26.1046 46.9963 26.1369 47.0303 27.0713 47.0303C28.0057 47.0303 28.0379 46.9963 28.1346 45.1618C28.199 43.735 28.5535 42.6139 29.5846 40.5076C30.8412 37.8917 30.9057 37.6879 30.3901 37.1443C29.6168 36.295 28.9401 36.7706 27.9735 38.8769L27.1035 40.7454L26.1046 38.775C25.0736 36.7367 24.3969 36.295 23.6558 37.2123Z" fill="url(#paint6_linear_2029_1259)" fill-opacity="0.6"/>
<path id="Vector_8" d="M33.0329 37.552C32.614 38.7071 32.614 45.7054 33.0329 46.5547C33.3229 47.0983 33.7418 47.2002 35.7395 47.2002C37.4473 47.2002 38.2206 47.0643 38.5106 46.6906C39.1872 45.8073 38.3495 45.1619 36.5451 45.1619C34.9984 45.1619 34.9662 45.1279 34.9662 44.1427C34.9662 43.2254 35.0629 43.1235 36.0617 43.1235C37.6406 43.1235 38.1884 42.8178 38.1884 41.9005C38.1884 41.2211 38.0273 41.1191 36.6739 41.0172C35.1918 40.9153 35.1273 40.8813 35.0306 39.7942L34.934 38.7071H36.6739C37.995 38.7071 38.4784 38.5712 38.6395 38.1636C39.0261 37.0764 38.2206 36.6688 35.7395 36.6688C33.4518 36.6688 33.3229 36.7027 33.0329 37.552Z" fill="url(#paint7_linear_2029_1259)" fill-opacity="0.6"/>
<path id="Vector_9" d="M44.0828 36.9405C43.5994 37.2803 40.6995 45.7054 40.8284 46.4528C41.0217 47.438 42.4717 47.1662 42.955 46.0791C43.3417 45.2638 43.5672 45.1619 44.9527 45.1619C46.3705 45.1619 46.5316 45.2298 46.8538 46.181C47.0794 46.9624 47.3694 47.2002 48.0138 47.2002C48.4649 47.2002 48.916 46.9964 49.0127 46.7586C49.2382 46.1131 46.3061 37.62 45.6616 37.0764C45.0816 36.6008 44.6305 36.5668 44.0828 36.9405ZM45.4361 42.1723C45.6616 43.0216 45.5972 43.1235 44.7916 43.1235C44.0828 43.1235 43.9539 43.0216 44.1472 42.512C44.2761 42.2063 44.4694 41.6627 44.5339 41.323C44.7594 40.5416 45.1461 40.9493 45.4361 42.1723Z" fill="url(#paint8_linear_2029_1259)" fill-opacity="0.6"/>
<path id="Vector_10" d="M51.5263 37.1104C51.4619 37.3482 51.4296 39.6923 51.4619 42.2742L51.5585 47.0303H52.3641C53.1052 47.0303 53.1696 46.8944 53.2663 45.2298C53.3307 44.1427 53.524 43.4632 53.7496 43.4632C53.9751 43.4632 54.5874 44.2785 55.1029 45.2637C56.134 47.0983 56.8751 47.5399 57.6806 46.8604C58.0995 46.4867 58.0351 46.215 57.3262 44.8221L56.4884 43.2254L57.3262 42.3421C57.9062 41.7306 58.1639 41.0851 58.1639 40.2358C58.1639 38.5712 57.6806 37.7219 56.3918 37.1444C54.974 36.5329 51.7519 36.4989 51.5263 37.1104ZM55.3929 38.9109C55.6829 39.0468 55.9084 39.5224 55.9084 40.066C55.9084 41.0512 55.4251 41.4249 54.104 41.4249C53.4274 41.4249 53.3307 41.255 53.3307 40.3038C53.3307 39.6583 53.4274 39.0468 53.5563 38.9449C53.814 38.6391 54.7162 38.6391 55.3929 38.9109Z" fill="url(#paint9_linear_2029_1259)" fill-opacity="0.6"/>
<path id="Vector_11" d="M10.1562 59.0568C10.1562 59.4645 10.4462 60.8573 10.7685 62.2162C11.1229 63.5751 11.574 65.3417 11.7673 66.157C12.0895 67.5499 12.1862 67.6178 13.1529 67.5159C14.0551 67.414 14.2162 67.2441 14.6995 65.5455L15.215 63.6771L15.6017 65.2058C16.2139 67.6518 16.2139 67.6178 17.3094 67.5159C18.3405 67.414 18.3405 67.38 19.4038 63.5072C20.7571 58.4793 20.7571 58.4113 19.3716 58.4113C18.3083 58.4113 18.2761 58.4793 17.825 60.3478L17.3417 62.3182L16.955 60.7894C16.3428 58.3434 16.3428 58.3774 15.2473 58.4793C14.3128 58.5812 14.1839 58.7171 13.7328 60.4497L13.2495 62.3182L12.734 60.4497C12.2507 58.7171 12.154 58.5812 11.1873 58.4793C10.3174 58.3774 10.1562 58.4793 10.1562 59.0568Z" fill="url(#paint10_linear_2029_1259)" fill-opacity="0.6"/>
<path id="Vector_12" d="M21.4962 62.6235C20.7229 64.9676 20.1751 67.0399 20.304 67.2098C20.4006 67.4136 20.9162 67.5835 21.4317 67.5835C22.2051 67.5835 22.3984 67.3797 22.7206 66.3945C23.0428 65.4093 23.2361 65.2054 23.9772 65.2054C24.7183 65.2054 24.9439 65.4093 25.1694 66.2925C25.4272 67.1758 25.685 67.4476 26.3939 67.5156C26.9094 67.5835 27.4572 67.4816 27.6183 67.3117C27.7794 67.1419 27.3283 65.3413 26.4905 62.7934L25.105 58.5808L23.9772 58.4789L22.8817 58.377L21.4962 62.6235Z" fill="url(#paint11_linear_2029_1259)" fill-opacity="0.6"/>
<path id="Vector_13" d="M29.0654 58.649C28.9365 58.7509 28.8398 60.8232 28.8398 63.2352V67.6177L29.9032 67.5158C30.902 67.4138 30.9342 67.3459 31.0309 65.7832C31.1598 63.7109 31.7398 63.8128 32.3198 65.987C32.7064 67.4818 32.8031 67.5837 33.8664 67.5837C35.1231 67.5837 35.1553 67.4138 34.4464 64.8999C34.092 63.6089 34.0597 62.9635 34.2853 62.7257C34.4786 62.5218 34.6397 61.7744 34.6397 61.095C34.6397 59.2605 33.512 58.4112 31.0954 58.4112C30.0965 58.4112 29.1621 58.5131 29.0654 58.649ZM32.2876 60.9931C32.3842 61.2988 32.2876 61.6725 32.0298 61.8424C31.2887 62.318 31.0954 62.2161 31.0954 61.2988C31.0954 60.3476 31.9653 60.1098 32.2876 60.9931Z" fill="url(#paint12_linear_2029_1259)" fill-opacity="0.6"/>
<path id="Vector_14" d="M36.0576 58.8528C35.9931 59.0906 35.9609 61.129 35.9931 63.3711L36.0898 67.4138L37.1531 67.5158L38.1842 67.6177V65.9191C38.1842 63.473 38.9253 63.6429 39.6341 66.2248C39.9241 67.244 40.1497 67.4138 41.0197 67.5158C42.2119 67.6516 42.3085 67.244 41.5997 64.798C41.2452 63.507 41.2452 63.1333 41.6319 62.352C42.1796 61.2309 41.9863 60.0418 41.0841 59.0906C40.5686 58.5471 39.9886 58.4112 38.3453 58.4112C36.8953 58.4112 36.1864 58.5471 36.0576 58.8528ZM39.3764 60.9931C39.5697 61.5366 38.893 62.25 38.4419 61.9443C38.3131 61.8424 38.1842 61.4687 38.1842 61.095C38.1842 60.3136 39.0864 60.2117 39.3764 60.9931Z" fill="url(#paint13_linear_2029_1259)" fill-opacity="0.6"/>
<path id="Vector_15" d="M44.0203 62.5556C43.2792 64.8657 42.6992 66.938 42.6992 67.1758C42.6992 67.4136 43.1503 67.5835 43.7948 67.5835C44.7614 67.5835 44.9547 67.4476 45.2769 66.3945C45.5992 65.4093 45.7925 65.2054 46.5336 65.2054C47.2747 65.2054 47.5002 65.4093 47.7258 66.2925C47.9836 67.1758 48.2413 67.4476 48.9502 67.5156C49.4657 67.5835 49.9813 67.5156 50.1424 67.3457C50.3357 67.1419 49.8524 65.3073 49.0146 62.7934L47.5969 58.5808L46.4691 58.4789L45.3414 58.377L44.0203 62.5556Z" fill="url(#paint14_linear_2029_1259)" fill-opacity="0.6"/>
<path id="Vector_16" d="M51.3984 63.0314V67.6177L52.4617 67.5158C53.4928 67.4138 53.4928 67.4138 53.5895 65.4095L53.6862 63.3711L54.9428 65.4774C56.0383 67.3119 56.3606 67.5837 57.1983 67.5837H58.165V62.9635V58.3772L57.1339 58.4791C56.1028 58.581 56.0706 58.615 55.9095 60.4495L55.7483 62.318L54.6206 60.3476C53.6539 58.615 53.3962 58.4112 52.4617 58.4112H51.3984V63.0314Z" fill="url(#paint15_linear_2029_1259)" fill-opacity="0.6"/>
<path id="Vector_17" d="M59.1943 59.4983C59.291 60.4835 59.4199 60.6194 60.3543 60.7213L61.3854 60.8232V64.2204V67.6177L62.4487 67.5158L63.4798 67.4138L63.5765 64.0846C63.6731 60.9251 63.7053 60.7892 64.382 60.7892C65.4453 60.7892 65.9608 60.2796 65.832 59.3964C65.7353 58.615 65.6386 58.581 62.4165 58.4791L59.0977 58.3772L59.1943 59.4983Z" fill="url(#paint16_linear_2029_1259)" fill-opacity="0.6"/>
<path id="Vector_18" d="M66.3803 58.7509C66.2514 58.9547 66.6381 59.9739 67.2181 61.061C67.9914 62.4878 68.3136 63.5749 68.4425 65.2056L68.6358 67.4138H69.7636H70.8913L71.0524 65.3755C71.1813 63.8467 71.5358 62.7596 72.438 61.095C73.0824 59.872 73.5335 58.7509 73.4046 58.649C73.3079 58.5131 72.7602 58.4111 72.1802 58.4111C71.3102 58.4111 71.0847 58.615 70.5047 59.838L69.8602 61.2988L69.1514 59.838C68.5714 58.649 68.3136 58.4111 67.5081 58.4111C66.9925 58.4111 66.477 58.581 66.3803 58.7509Z" fill="url(#paint17_linear_2029_1259)" fill-opacity="0.6"/>
</g>
<defs>
<linearGradient id="paint0_linear_2029_1259" x1="38.94" y1="78.9231" x2="42.0431" y2="0.0122384" gradientUnits="userSpaceOnUse">
<stop stop-color="#1FD1F9"/>
<stop offset="1" stop-color="#07463E"/>
</linearGradient>
<linearGradient id="paint1_linear_2029_1259" x1="44.8126" y1="15.3119" x2="44.8989" y2="12.222" gradientUnits="userSpaceOnUse">
<stop stop-color="#1FD1F9"/>
<stop offset="1" stop-color="#07463E"/>
</linearGradient>
<linearGradient id="paint2_linear_2029_1259" x1="53.0299" y1="22.0407" x2="53.3335" y2="14.2638" gradientUnits="userSpaceOnUse">
<stop stop-color="#1FD1F9"/>
<stop offset="1" stop-color="#07463E"/>
</linearGradient>
<linearGradient id="paint3_linear_2029_1259" x1="41.1222" y1="34.7542" x2="43.8929" y2="18.062" gradientUnits="userSpaceOnUse">
<stop stop-color="#1FD1F9"/>
<stop offset="1" stop-color="#07463E"/>
</linearGradient>
<linearGradient id="paint4_linear_2029_1259" x1="31.1203" y1="29.7417" x2="31.4921" y2="21.3863" gradientUnits="userSpaceOnUse">
<stop stop-color="#1FD1F9"/>
<stop offset="1" stop-color="#07463E"/>
</linearGradient>
<linearGradient id="paint5_linear_2029_1259" x1="51.8195" y1="29.7417" x2="52.1913" y2="21.3863" gradientUnits="userSpaceOnUse">
<stop stop-color="#1FD1F9"/>
<stop offset="1" stop-color="#07463E"/>
</linearGradient>
<linearGradient id="paint6_linear_2029_1259" x1="26.8301" y1="48.0192" x2="27.544" y2="36.7752" gradientUnits="userSpaceOnUse">
<stop stop-color="#1FD1F9"/>
<stop offset="1" stop-color="#07463E"/>
</linearGradient>
<linearGradient id="paint7_linear_2029_1259" x1="35.5255" y1="48.2128" x2="36.4223" y2="36.7227" gradientUnits="userSpaceOnUse">
<stop stop-color="#1FD1F9"/>
<stop offset="1" stop-color="#07463E"/>
</linearGradient>
<linearGradient id="paint8_linear_2029_1259" x1="44.6445" y1="48.2111" x2="45.303" y2="36.7085" gradientUnits="userSpaceOnUse">
<stop stop-color="#1FD1F9"/>
<stop offset="1" stop-color="#07463E"/>
</linearGradient>
<linearGradient id="paint9_linear_2029_1259" x1="54.5773" y1="48.1711" x2="55.3772" y2="36.7082" gradientUnits="userSpaceOnUse">
<stop stop-color="#1FD1F9"/>
<stop offset="1" stop-color="#07463E"/>
</linearGradient>
<linearGradient id="paint10_linear_2029_1259" x1="14.9352" y1="68.429" x2="15.3336" y2="58.4133" gradientUnits="userSpaceOnUse">
<stop stop-color="#1FD1F9"/>
<stop offset="1" stop-color="#07463E"/>
</linearGradient>
<linearGradient id="paint11_linear_2029_1259" x1="23.7163" y1="68.4687" x2="24.2786" y2="58.3943" gradientUnits="userSpaceOnUse">
<stop stop-color="#1FD1F9"/>
<stop offset="1" stop-color="#07463E"/>
</linearGradient>
<linearGradient id="paint12_linear_2029_1259" x1="31.6684" y1="68.5029" x2="32.3494" y2="58.4432" gradientUnits="userSpaceOnUse">
<stop stop-color="#1FD1F9"/>
<stop offset="1" stop-color="#07463E"/>
</linearGradient>
<linearGradient id="paint13_linear_2029_1259" x1="38.8058" y1="68.5029" x2="39.4876" y2="58.4433" gradientUnits="userSpaceOnUse">
<stop stop-color="#1FD1F9"/>
<stop offset="1" stop-color="#07463E"/>
</linearGradient>
<linearGradient id="paint14_linear_2029_1259" x1="46.1864" y1="68.4687" x2="46.7397" y2="58.3933" gradientUnits="userSpaceOnUse">
<stop stop-color="#1FD1F9"/>
<stop offset="1" stop-color="#07463E"/>
</linearGradient>
<linearGradient id="paint15_linear_2029_1259" x1="54.5506" y1="68.5062" x2="55.1668" y2="58.4007" gradientUnits="userSpaceOnUse">
<stop stop-color="#1FD1F9"/>
<stop offset="1" stop-color="#07463E"/>
</linearGradient>
<linearGradient id="paint16_linear_2029_1259" x1="62.2439" y1="68.5062" x2="62.8612" y2="58.4008" gradientUnits="userSpaceOnUse">
<stop stop-color="#1FD1F9"/>
<stop offset="1" stop-color="#07463E"/>
</linearGradient>
<linearGradient id="paint17_linear_2029_1259" x1="69.6496" y1="68.2795" x2="70.2095" y2="58.4293" gradientUnits="userSpaceOnUse">
<stop stop-color="#1FD1F9"/>
<stop offset="1" stop-color="#07463E"/>
</linearGradient>
</defs>
</svg>
